<svg width="24" height="24" viewBox="0 0 24 24" fill="none" xmlns="http://www.w3.org/2000/svg">
<g clip-path="url(#clip0_203_3452)">
<path d="M4.08206 16.3164C3.90764 16.2377 3.80549 16.1705 3.75187 16.1256C3.78201 15.3599 4.17512 14.9738 4.79405 14.4033C4.80432 14.3938 4.81466 14.3843 4.82505 14.3747C5.4635 13.7866 6.32143 12.9963 6.32143 11.4815C6.32143 11.3814 6.31649 11.2451 6.31045 11.0785C6.27703 10.157 6.20999 8.30813 6.75971 6.54001C7.07881 5.51365 7.5915 4.57574 8.39527 3.89504C9.18759 3.22405 10.3247 2.75 12 2.75C13.6766 2.75 14.8142 3.22132 15.6063 3.88846C16.4095 4.56496 16.9217 5.4974 17.2405 6.5196C17.7888 8.27777 17.7232 10.121 17.6898 11.0615C17.6836 11.2338 17.6786 11.3759 17.6786 11.4815C17.6786 12.9963 18.5365 13.7866 19.1749 14.3747C19.1853 14.3843 19.1957 14.3938 19.206 14.4033C19.8249 14.9738 20.218 15.3599 20.2481 16.1256C20.1945 16.1705 20.0924 16.2377 19.9179 16.3164C19.5106 16.5004 18.8796 16.6726 18.0578 16.8169C16.4281 17.103 14.225 17.25 12 17.25C9.77501 17.25 7.57188 17.103 5.9422 16.8169C5.12043 16.6726 4.48939 16.5004 4.08206 16.3164Z" stroke="#3A3A3C" stroke-width="1.5" stroke-linejoin="round"/>
<path d="M9.98478 20.5651C9.69591 20.1994 9.55172 19.8096 9.51187 19.5H14.4914C14.457 19.8134 14.3198 20.2052 14.038 20.5686C13.6437 21.0772 12.9846 21.5 11.9991 21.5C11.0541 21.5 10.3919 21.0805 9.98478 20.5651Z" stroke="#3A3A3C" stroke-linejoin="round"/>
</g>
<defs>
<clipPath id="clip0_203_3452">
<rect width="24" height="24" fill="white"/>
</clipPath>
</defs>
</svg>