<svg width="27" height="25" viewBox="0 0 27 25" fill="none" xmlns="http://www.w3.org/2000/svg">
<path id="Vector" fill-rule="evenodd" clip-rule="evenodd" d="M12.2516 7.82264C12.3141 8.44645 12.4632 9.05947 12.6939 9.64347C11.5155 12.2224 9.09624 15.0478 6.69723 15.9563C4.7201 15.3483 2.50483 16.1246 1.4012 17.9477C0.11235 20.0768 0.827628 22.8273 2.99881 24.0912C5.16999 25.3551 7.97491 24.6536 9.26374 22.5246C9.982 21.338 10.0778 19.9585 9.64614 18.7508C10.7861 16.2813 14.2418 14.2565 17.3266 13.7731C20.309 14.5995 23.6 13.4012 25.2569 10.6641C27.2331 7.39951 26.1363 3.18199 22.8072 1.24406C19.4781 -0.693858 15.1772 0.381633 13.2009 3.64625C13.189 3.66599 13.1772 3.68579 13.1655 3.70559C11.2015 3.81712 9.54665 3.39968 8.44882 2.85687C8.18238 2.05517 7.62938 1.34122 6.83188 0.877025C5.08758 -0.13833 2.83415 0.425146 1.79871 2.13564C0.763264 3.84613 1.33791 6.05585 3.08221 7.07121C4.63892 7.97742 6.60113 7.62607 7.74122 6.32415C9.85078 6.58416 11.7083 7.3252 12.2516 7.82264Z" fill="white"/>
</svg>
