<svg xmlns="http://www.w3.org/2000/svg" width="11" height="17" viewBox="0 0 11 17" fill="none">
  <path d="M10.7314 15.6802C10.8166 15.752 10.8841 15.8372 10.9302 15.931C10.9763 16.0248 11 16.1254 11 16.2269C11 16.3284 10.9763 16.4289 10.9302 16.5227C10.8841 16.6165 10.8166 16.7018 10.7314 16.7736C10.6462 16.8454 10.5451 16.9023 10.4339 16.9411C10.3226 16.98 10.2034 17 10.0829 17C9.96249 17 9.84324 16.98 9.73198 16.9411C9.62071 16.9023 9.51961 16.8454 9.43446 16.7736L0.268816 9.04668C0.183597 8.97491 0.115993 8.8897 0.0698671 8.79589C0.0237417 8.70209 0 8.60154 0 8.5C0 8.39846 0.0237417 8.29791 0.0698671 8.20411C0.115993 8.1103 0.183597 8.02508 0.268816 7.95332L9.43446 0.226441C9.60644 0.0814532 9.8397 -4.0419e-09 10.0829 0C10.3261 4.0419e-09 10.5594 0.0814532 10.7314 0.226441C10.9034 0.371429 11 0.568074 11 0.773118C11 0.978161 10.9034 1.17481 10.7314 1.31979L2.21308 8.5L10.7314 15.6802Z" fill="#9C9CA1"/>
</svg>