<svg width="35" height="39" viewBox="0 0 35 39" fill="none" xmlns="http://www.w3.org/2000/svg">
<path d="M29.5786 18.7735C30.2202 17.4494 30.535 15.9922 30.4969 14.5227C30.4588 13.0533 30.0688 11.6141 29.3594 10.3248C28.65 9.0354 27.6416 7.93306 26.418 7.10932C25.1944 6.28558 23.7909 5.76421 22.3242 5.58852C21.8361 4.4595 21.1265 3.43871 20.237 2.58593C19.3475 1.73315 18.2959 1.06552 17.1439 0.622142C15.9918 0.178764 14.7624 -0.0314527 13.5276 0.00380204C12.2929 0.0390568 11.0776 0.319074 9.95299 0.827457C8.82837 1.33584 7.817 2.06237 6.9781 2.9645C6.13921 3.86663 5.48965 4.92622 5.06747 6.08124C4.64529 7.23625 4.45898 8.46347 4.51944 9.69102C4.57989 10.9186 4.88591 12.1218 5.41957 13.2302L4.57573 16.0838C4.48138 16.4024 4.47507 16.7404 4.55747 17.0622C4.63986 17.3841 4.80791 17.6778 5.04394 17.9127C5.27997 18.1475 5.57525 18.3147 5.89872 18.3967C6.22218 18.4787 6.56188 18.4724 6.88206 18.3785L9.75018 17.539C10.6711 17.9792 11.6585 18.2659 12.6728 18.3878C13.1657 19.5366 13.8875 20.5741 14.7947 21.4375C15.702 22.301 16.7758 22.9724 17.9512 23.4112C19.1266 23.85 20.3793 24.0471 21.6335 23.9905C22.8876 23.934 24.1172 23.625 25.248 23.0823L28.1161 23.9218C28.4362 24.0156 28.7757 24.0218 29.099 23.9399C29.4224 23.858 29.7175 23.6909 29.9535 23.4562C30.1895 23.2215 30.3576 22.9279 30.4401 22.6063C30.5226 22.2846 30.5165 21.9468 30.4224 21.6283L29.5786 18.7735ZM9.83839 15.6254C9.74966 15.6256 9.66138 15.638 9.57607 15.6623L6.35626 16.607L7.30456 13.4011C7.372 13.1695 7.34576 12.9208 7.23144 12.7082C6.39144 11.1452 6.14394 9.33391 6.53404 7.60451C6.92414 5.87511 7.92588 4.34278 9.35663 3.28684C10.7874 2.2309 12.5519 1.72167 14.3285 1.85199C16.1051 1.98231 17.7754 2.74349 19.0351 3.99678C20.2947 5.25007 21.0597 6.912 21.1907 8.67962C21.3217 10.4472 20.8099 12.2028 19.7486 13.6264C18.6873 15.0499 17.1472 16.0466 15.409 16.4347C13.6709 16.8229 11.8504 16.5766 10.2795 15.7408C10.1444 15.6665 9.99278 15.6268 9.83839 15.6254ZM27.689 18.9433L28.6419 22.1503L25.4198 21.2068C25.187 21.1397 24.937 21.1658 24.7233 21.2795C23.0134 22.188 21.0145 22.396 19.1526 21.8593C17.2908 21.3225 15.7133 20.0835 14.7563 18.4063C16.0277 18.2742 17.258 17.8822 18.37 17.2548C19.4819 16.6273 20.4516 15.778 21.218 14.7602C21.9845 13.7423 22.5313 12.5778 22.8241 11.3397C23.1169 10.1017 23.1494 8.81678 22.9196 7.56563C24.0274 7.82544 25.0603 8.33502 25.9387 9.05505C26.8172 9.77509 27.5176 10.6863 27.9858 11.7184C28.4541 12.7505 28.6778 13.8758 28.6396 15.0076C28.6014 16.1393 28.3024 17.2472 27.7656 18.2457C27.65 18.4596 27.6237 18.7102 27.6924 18.9433H27.689Z" fill="#9C9CA1" fill-opacity="0.7"/>
<path d="M7.55 29.98V36.34H6.8V29.98H7.55ZM0.54 34.78C1.61333 34.4467 2.47333 33.9767 3.12 33.37C3.76667 32.7567 4.13 32.0567 4.21 31.27H1V30.64H5.02C5.02 31.7533 4.64667 32.7233 3.9 33.55C3.16 34.37 2.14 34.9833 0.84 35.39L0.54 34.78ZM1.91 35.83H2.65V37.91H7.77V38.53H1.91V35.83ZM10.9202 34.99V36.17H15.2902V34.99H16.0302V38.62H10.1802V34.99H10.9202ZM9.14023 33.56H15.0502C15.1636 33.08 15.2336 32.6533 15.2602 32.28C15.2869 31.9067 15.3002 31.4867 15.3002 31.02V31H10.1602V30.38H16.0302V31.02C16.0302 31.4867 16.0169 31.9067 15.9902 32.28C15.9636 32.6533 15.9002 33.08 15.8002 33.56H17.0702V34.2H9.14023V33.56ZM15.2902 38.01V36.76H10.9202V38.01H15.2902ZM25.0605 29.98V36.59H24.3105V33.63H22.7805V33H24.3105V29.98H25.0605ZM17.8805 31.06H20.0405V29.98H20.7805V31.06H22.9405V31.67H17.8805V31.06ZM18.4005 33.8C18.4005 33.48 18.4871 33.1967 18.6605 32.95C18.8338 32.7033 19.0705 32.5133 19.3705 32.38C19.6771 32.24 20.0238 32.17 20.4105 32.17C20.7971 32.17 21.1405 32.24 21.4405 32.38C21.7471 32.5133 21.9871 32.7033 22.1605 32.95C22.3338 33.1967 22.4205 33.48 22.4205 33.8C22.4205 34.12 22.3338 34.4033 22.1605 34.65C21.9938 34.89 21.7571 35.08 21.4505 35.22C21.1438 35.3533 20.7971 35.42 20.4105 35.42C20.0238 35.42 19.6771 35.3533 19.3705 35.22C19.0638 35.08 18.8238 34.89 18.6505 34.65C18.4838 34.4033 18.4005 34.12 18.4005 33.8ZM19.1105 33.8C19.1105 34.1067 19.2305 34.3567 19.4705 34.55C19.7171 34.7367 20.0305 34.83 20.4105 34.83C20.7905 34.83 21.1005 34.7367 21.3405 34.55C21.5871 34.3567 21.7105 34.1067 21.7105 33.8C21.7105 33.4933 21.5871 33.2433 21.3405 33.05C21.1005 32.8567 20.7905 32.76 20.4105 32.76C20.0305 32.76 19.7171 32.8567 19.4705 33.05C19.2305 33.2433 19.1105 33.4933 19.1105 33.8ZM19.4505 36.01H20.2005V37.91H25.2705V38.53H19.4505V36.01ZM33.0507 31.92V29.98H33.7907V34.86H33.0507V34.09H31.5207V33.49H33.0507V32.53H31.5307V31.92H33.0507ZM26.6207 30.76H28.7407V29.87H29.4907V30.76H31.5407V31.35H26.6207V30.76ZM27.1307 33.28C27.1307 32.8267 27.3107 32.4633 27.6707 32.19C28.0374 31.9167 28.5174 31.78 29.1107 31.78C29.6974 31.78 30.1707 31.9167 30.5307 32.19C30.8974 32.4633 31.0807 32.8267 31.0807 33.28C31.0807 33.7267 30.8974 34.0833 30.5307 34.35C30.1707 34.6167 29.6974 34.75 29.1107 34.75C28.5174 34.75 28.0374 34.6167 27.6707 34.35C27.3107 34.0833 27.1307 33.7267 27.1307 33.28ZM27.8407 33.28C27.8407 33.5533 27.9574 33.7767 28.1907 33.95C28.424 34.1233 28.7307 34.21 29.1107 34.21C29.484 34.21 29.7874 34.1233 30.0207 33.95C30.254 33.7767 30.3707 33.5533 30.3707 33.28C30.3707 33 30.254 32.7767 30.0207 32.61C29.794 32.4367 29.4907 32.35 29.1107 32.35C28.7307 32.35 28.424 32.4333 28.1907 32.6C27.9574 32.7667 27.8407 32.9933 27.8407 33.28ZM28.1707 35.31H33.7907V37.18H28.9307V38.05H34.0407V38.63H28.2007V36.64H33.0507V35.87H28.1707V35.31Z" fill="#9C9CA1" fill-opacity="0.7"/>
</svg>
