<svg width="40" height="40" viewBox="0 0 40 40" fill="none" xmlns="http://www.w3.org/2000/svg">
<rect width="40" height="40" fill="#F5F5F5"/>
<path d="M-1743 -382C-1743 -383.104 -1742.1 -384 -1741 -384H5442C5443.1 -384 5444 -383.105 5444 -382V11591C5444 11592.1 5443.1 11593 5442 11593H-1741C-1742.1 11593 -1743 11592.1 -1743 11591V-382Z" fill="#4F4F4F"/>
<path d="M-1741 -383H5442V-385H-1741V-383ZM5443 -382V11591H5445V-382H5443ZM5442 11592H-1741V11594H5442V11592ZM-1742 11591V-382H-1744V11591H-1742ZM-1741 11592C-1741.55 11592 -1742 11591.6 -1742 11591H-1744C-1744 11592.7 -1742.66 11594 -1741 11594V11592ZM5443 11591C5443 11591.6 5442.55 11592 5442 11592V11594C5443.66 11594 5445 11592.7 5445 11591H5443ZM5442 -383C5442.55 -383 5443 -382.552 5443 -382H5445C5445 -383.657 5443.66 -385 5442 -385V-383ZM-1741 -385C-1742.66 -385 -1744 -383.656 -1744 -382H-1742C-1742 -382.552 -1741.55 -383 -1741 -383V-385Z" fill="#4F4F4F"/>
<rect width="360" height="879" transform="translate(-31 -118)" fill="#FAFAFC"/>
<g filter="url(#filter0_d_1_2)">
<rect x="-15" y="-11" width="328" height="62" rx="10" fill="#FF6969" fill-opacity="0.1" shape-rendering="crispEdges"/>
<path d="M19.7294 0C15.9134 0 12.1831 1.17298 9.01019 3.37061C5.83729 5.56823 3.36431 8.69181 1.90399 12.3463C0.443663 16.0008 0.0615748 20.0222 0.806042 23.9018C1.55051 27.7814 3.3881 31.3451 6.08643 34.1421C8.78476 36.9392 12.2226 38.844 15.9653 39.6157C19.708 40.3874 23.5874 39.9913 27.113 38.4776C30.6385 36.9638 33.6518 34.4004 35.7719 31.1114C37.892 27.8224 39.0235 23.9556 39.0235 20C39.0181 14.6974 36.9836 9.61356 33.3665 5.86405C29.7493 2.11453 24.8449 0.00559965 19.7294 0ZM18.9873 9.23077C19.4277 9.23077 19.8581 9.36611 20.2242 9.61968C20.5903 9.87326 20.8756 10.2337 21.0441 10.6553C21.2126 11.077 21.2567 11.541 21.1708 11.9887C21.0849 12.4363 20.8729 12.8475 20.5615 13.1702C20.2502 13.493 19.8535 13.7128 19.4217 13.8018C18.9898 13.8909 18.5422 13.8452 18.1354 13.6705C17.7286 13.4958 17.3809 13.2 17.1363 12.8205C16.8917 12.441 16.7611 11.9949 16.7611 11.5385C16.7611 10.9264 16.9956 10.3395 17.4132 9.90667C17.8307 9.4739 18.3969 9.23077 18.9873 9.23077ZM21.2136 30.7692C20.4263 30.7692 19.6713 30.445 19.1147 29.868C18.558 29.291 18.2453 28.5084 18.2453 27.6923V20C17.8516 20 17.4741 19.8379 17.1958 19.5494C16.9175 19.2609 16.7611 18.8696 16.7611 18.4615C16.7611 18.0535 16.9175 17.6622 17.1958 17.3737C17.4741 17.0852 17.8516 16.9231 18.2453 16.9231C19.0325 16.9231 19.7875 17.2472 20.3442 17.8243C20.9009 18.4013 21.2136 19.1839 21.2136 20V27.6923C21.6072 27.6923 21.9847 27.8544 22.2631 28.1429C22.5414 28.4314 22.6978 28.8227 22.6978 29.2308C22.6978 29.6388 22.5414 30.0301 22.2631 30.3186C21.9847 30.6071 21.6072 30.7692 21.2136 30.7692Z" fill="#FF6969"/>
</g>
<defs>
<filter id="filter0_d_1_2" x="-19" y="-11" width="336" height="70" filterUnits="userSpaceOnUse" color-interpolation-filters="sRGB">
<feFlood flood-opacity="0" result="BackgroundImageFix"/>
<feColorMatrix in="SourceAlpha" type="matrix" values="0 0 0 0 0 0 0 0 0 0 0 0 0 0 0 0 0 0 127 0" result="hardAlpha"/>
<feOffset dy="4"/>
<feGaussianBlur stdDeviation="2"/>
<feComposite in2="hardAlpha" operator="out"/>
<feColorMatrix type="matrix" values="0 0 0 0 0 0 0 0 0 0 0 0 0 0 0 0 0 0 0.05 0"/>
<feBlend mode="normal" in2="BackgroundImageFix" result="effect1_dropShadow_1_2"/>
<feBlend mode="normal" in="SourceGraphic" in2="effect1_dropShadow_1_2" result="shape"/>
</filter>
</defs>
</svg>
