<svg width="12" height="12" viewBox="0 0 12 12" fill="none" xmlns="http://www.w3.org/2000/svg">
<path id="Vector" d="M6 0.844238C4.9122 0.844238 3.84884 1.16681 2.94437 1.77116C2.0399 2.3755 1.33495 3.23449 0.918665 4.23948C0.502383 5.24447 0.393465 6.35034 0.605683 7.41723C0.817902 8.48413 1.34173 9.46414 2.11091 10.2333C2.8801 11.0025 3.86011 11.5263 4.927 11.7386C5.9939 11.9508 7.09977 11.8419 8.10476 11.4256C9.10975 11.0093 9.96874 10.3043 10.5731 9.39987C11.1774 8.4954 11.5 7.43203 11.5 6.34424C11.4985 4.88602 10.9185 3.48797 9.88739 2.45685C8.85627 1.42574 7.45822 0.845778 6 0.844238ZM8.41471 5.37433L5.45317 8.33587C5.41388 8.37521 5.36722 8.40641 5.31586 8.4277C5.2645 8.449 5.20945 8.45995 5.15385 8.45995C5.09825 8.45995 5.0432 8.449 4.99183 8.4277C4.94047 8.40641 4.89381 8.37521 4.85452 8.33587L3.58529 7.06664C3.5059 6.98725 3.46131 6.87958 3.46131 6.76731C3.46131 6.65504 3.5059 6.54737 3.58529 6.46799C3.66468 6.3886 3.77235 6.344 3.88462 6.344C3.99689 6.344 4.10456 6.3886 4.18394 6.46799L5.15385 7.43842L7.81606 4.77568C7.85537 4.73637 7.90203 4.70519 7.95339 4.68392C8.00475 4.66264 8.0598 4.65169 8.11539 4.65169C8.17098 4.65169 8.22602 4.66264 8.27738 4.68392C8.32874 4.70519 8.3754 4.73637 8.41471 4.77568C8.45402 4.81499 8.4852 4.86165 8.50647 4.91301C8.52775 4.96437 8.5387 5.01942 8.5387 5.07501C8.5387 5.1306 8.52775 5.18564 8.50647 5.237C8.4852 5.28836 8.45402 5.33503 8.41471 5.37433Z" fill="#FF6969"/>
</svg>
