<svg width="22" height="21" viewBox="0 0 22 21" fill="none" xmlns="http://www.w3.org/2000/svg">
<g id="Vector">
<path id="Vector_2" d="M20.1744 8.13937C19.8209 7.77 19.4553 7.38938 19.3175 7.05469C19.19 6.74813 19.1825 6.24 19.175 5.74781C19.1609 4.83281 19.1459 3.79594 18.425 3.075C17.7041 2.35406 16.6672 2.33906 15.7522 2.325C15.26 2.3175 14.7519 2.31 14.4453 2.1825C14.1116 2.04469 13.73 1.67906 13.3606 1.32562C12.7137 0.704062 11.9788 0 11 0C10.0212 0 9.28719 0.704062 8.63937 1.32562C8.27 1.67906 7.88938 2.04469 7.55469 2.1825C7.25 2.31 6.74 2.3175 6.24781 2.325C5.33281 2.33906 4.29594 2.35406 3.575 3.075C2.85406 3.79594 2.84375 4.83281 2.825 5.74781C2.8175 6.24 2.81 6.74813 2.6825 7.05469C2.54469 7.38844 2.17906 7.77 1.82562 8.13937C1.20406 8.78625 0.5 9.52125 0.5 10.5C0.5 11.4788 1.20406 12.2128 1.82562 12.8606C2.17906 13.23 2.54469 13.6106 2.6825 13.9453C2.81 14.2519 2.8175 14.76 2.825 15.2522C2.83906 16.1672 2.85406 17.2041 3.575 17.925C4.29594 18.6459 5.33281 18.6609 6.24781 18.675C6.74 18.6825 7.24813 18.69 7.55469 18.8175C7.88844 18.9553 8.27 19.3209 8.63937 19.6744C9.28625 20.2959 10.0212 21 11 21C11.9788 21 12.7128 20.2959 13.3606 19.6744C13.73 19.3209 14.1106 18.9553 14.4453 18.8175C14.7519 18.69 15.26 18.6825 15.7522 18.675C16.6672 18.6609 17.7041 18.6459 18.425 17.925C19.1459 17.2041 19.1609 16.1672 19.175 15.2522C19.1825 14.76 19.19 14.2519 19.3175 13.9453C19.4553 13.6116 19.8209 13.23 20.1744 12.8606C20.7959 12.2137 21.5 11.4788 21.5 10.5C21.5 9.52125 20.7959 8.78719 20.1744 8.13937ZM15.2806 8.78063L10.0306 14.0306C9.96097 14.1004 9.87825 14.1557 9.7872 14.1934C9.69616 14.2312 9.59856 14.2506 9.5 14.2506C9.40144 14.2506 9.30384 14.2312 9.2128 14.1934C9.12175 14.1557 9.03903 14.1004 8.96937 14.0306L6.71937 11.7806C6.57864 11.6399 6.49958 11.449 6.49958 11.25C6.49958 11.051 6.57864 10.8601 6.71937 10.7194C6.86011 10.5786 7.05098 10.4996 7.25 10.4996C7.44902 10.4996 7.63989 10.5786 7.78063 10.7194L9.5 12.4397L14.2194 7.71937C14.2891 7.64969 14.3718 7.59442 14.4628 7.5567C14.5539 7.51899 14.6515 7.49958 14.75 7.49958C14.8485 7.49958 14.9461 7.51899 15.0372 7.5567C15.1282 7.59442 15.2109 7.64969 15.2806 7.71937C15.3503 7.78906 15.4056 7.87178 15.4433 7.96283C15.481 8.05387 15.5004 8.15145 15.5004 8.25C15.5004 8.34855 15.481 8.44613 15.4433 8.53717C15.4056 8.62822 15.3503 8.71094 15.2806 8.78063Z" fill="#FF6969"/>
</g>
</svg>
