<svg width="79" height="79" viewBox="0 0 79 79" fill="none" xmlns="http://www.w3.org/2000/svg">
<path d="M73.8687 30.5C72.5559 29.128 71.3805 27.7431 70.8687 26.5C70.3951 25.3613 69.8965 23.3281 69.8687 21.5C69.8164 18.1014 70.5464 14.1778 67.8687 11.5C65.1909 8.82223 61.2672 9.55223 57.8687 9.5C56.0405 9.47214 54.0073 8.97357 52.8687 8.5C51.629 7.98812 50.2406 6.81277 48.8687 5.5C46.466 3.19134 43.504 0.5 39.8687 0.5C36.2333 0.5 33.2748 3.19134 30.8687 5.5C29.4967 6.81277 28.1118 7.98812 26.8687 8.5C25.737 8.97357 23.6968 9.47214 21.8687 9.5C18.4701 9.55223 14.5464 8.82223 11.8687 11.5C9.19088 14.1778 9.9383 18.1014 9.86865 21.5C9.8408 23.3281 9.34222 25.3613 8.86865 26.5C8.35678 27.7396 7.18142 29.128 5.86865 30.5C3.55999 32.9027 0.868652 35.8646 0.868652 39.5C0.868652 43.1354 3.55999 46.0938 5.86865 48.5C7.18142 49.872 8.35678 51.2569 8.86865 52.5C9.34222 53.6387 9.8408 55.6719 9.86865 57.5C9.92088 60.8986 9.19088 64.8222 11.8687 67.5C14.5464 70.1778 18.4701 69.4478 21.8687 69.5C23.6968 69.5279 25.73 70.0264 26.8687 70.5C28.1083 71.0119 29.4967 72.1872 30.8687 73.5C33.2713 75.8087 36.2333 78.5 39.8687 78.5C43.504 78.5 46.4625 75.8087 48.8687 73.5C50.2406 72.1872 51.6255 71.0119 52.8687 70.5C54.0073 70.0264 56.0405 69.5279 57.8687 69.5C61.2672 69.4478 65.1909 70.1778 67.8687 67.5C70.5464 64.8222 69.8164 60.8986 69.8687 57.5C69.8965 55.6719 70.3951 53.6387 70.8687 52.5C71.3805 51.2604 72.5559 49.872 73.8687 48.5C76.1773 46.0973 78.8687 43.1354 78.8687 39.5C78.8687 35.8646 76.1773 32.9062 73.8687 30.5ZM55.8687 33.5L35.8687 52.5C35.6099 52.759 35.2068 53.3598 34.8687 53.5C34.5305 53.6402 34.2347 53.5 33.8687 53.5C33.5026 53.5 33.2068 53.6402 32.8687 53.5C32.5305 53.3598 32.1274 52.759 31.8687 52.5L23.8687 44.5C23.3459 43.9773 22.8687 43.2392 22.8687 42.5C22.8687 41.7608 23.3459 41.0227 23.8687 40.5C24.3914 39.9773 25.1294 39.5 25.8687 39.5C26.6079 39.5 27.3459 39.9773 27.8687 40.5L33.8687 46.5L51.8687 29.5C52.1275 29.2412 52.5305 28.6401 52.8687 28.5C53.2068 28.3599 53.5026 28.5 53.8687 28.5C54.2347 28.5 54.5305 28.3599 54.8687 28.5C55.2068 28.6401 55.6098 29.2412 55.8687 29.5C56.1275 29.7588 56.7286 30.1618 56.8687 30.5C57.0087 30.8382 56.8687 31.134 56.8687 31.5C56.8687 31.866 57.0087 32.1618 56.8687 32.5C56.7286 32.8382 56.1275 33.2412 55.8687 33.5Z" fill="#FF6969"/>
</svg>
