<svg width="10" height="10" viewBox="0 0 10 10" fill="none" xmlns="http://www.w3.org/2000/svg">
<path id="Vector" d="M5 0.5C4.10999 0.5 3.23996 0.76392 2.49994 1.25839C1.75991 1.75285 1.18314 2.45566 0.842544 3.27792C0.50195 4.10019 0.412835 5.00499 0.586468 5.87791C0.760102 6.75082 1.18868 7.55264 1.81802 8.18198C2.44736 8.81131 3.24918 9.2399 4.12209 9.41353C4.99501 9.58716 5.89981 9.49805 6.72208 9.15746C7.54434 8.81686 8.24715 8.24009 8.74161 7.50006C9.23608 6.76004 9.5 5.89001 9.5 5C9.49874 3.80691 9.02423 2.66305 8.18059 1.81941C7.33695 0.97577 6.19309 0.50126 5 0.5ZM6.97567 4.20644L4.5526 6.62952C4.52045 6.6617 4.48227 6.68723 4.44025 6.70465C4.39823 6.72207 4.35318 6.73104 4.30769 6.73104C4.2622 6.73104 4.21716 6.72207 4.17514 6.70465C4.13311 6.68723 4.09494 6.6617 4.06279 6.62952L3.02433 5.59106C2.95938 5.5261 2.92289 5.43801 2.92289 5.34615C2.92289 5.2543 2.95938 5.1662 3.02433 5.10125C3.08928 5.0363 3.17738 4.99981 3.26923 4.99981C3.36109 4.99981 3.44918 5.0363 3.51414 5.10125L4.30769 5.89524L6.48587 3.71663C6.51803 3.68447 6.55621 3.65896 6.59823 3.64156C6.64025 3.62415 6.68529 3.61519 6.73077 3.61519C6.77625 3.61519 6.82129 3.62415 6.86331 3.64156C6.90533 3.65896 6.94351 3.68447 6.97567 3.71663C7.00783 3.7488 7.03335 3.78698 7.05075 3.829C7.06816 3.87102 7.07712 3.91605 7.07712 3.96154C7.07712 4.00702 7.06816 4.05206 7.05075 4.09408C7.03335 4.1361 7.00783 4.17428 6.97567 4.20644Z" fill="white"/>
</svg>
