<svg width="9" height="11" viewBox="0 0 9 11" fill="none" xmlns="http://www.w3.org/2000/svg">
<path d="M8.625 2.125H6.75V1.75C6.75 1.45163 6.63147 1.16548 6.4205 0.954505C6.20952 0.743526 5.92337 0.625 5.625 0.625H3.375C3.07663 0.625 2.79048 0.743526 2.5795 0.954505C2.36853 1.16548 2.25 1.45163 2.25 1.75V2.125H0.375C0.275544 2.125 0.180161 2.16451 0.109835 2.23484C0.0395089 2.30516 0 2.40054 0 2.5C0 2.59946 0.0395089 2.69484 0.109835 2.76516C0.180161 2.83549 0.275544 2.875 0.375 2.875H0.75V9.625C0.75 9.82391 0.829018 10.0147 0.96967 10.1553C1.11032 10.296 1.30109 10.375 1.5 10.375H7.5C7.69891 10.375 7.88968 10.296 8.03033 10.1553C8.17098 10.0147 8.25 9.82391 8.25 9.625V2.875H8.625C8.72446 2.875 8.81984 2.83549 8.89017 2.76516C8.96049 2.69484 9 2.59946 9 2.5C9 2.40054 8.96049 2.30516 8.89017 2.23484C8.81984 2.16451 8.72446 2.125 8.625 2.125ZM3.75 7.75C3.75 7.84946 3.71049 7.94484 3.64016 8.01517C3.56984 8.08549 3.47446 8.125 3.375 8.125C3.27554 8.125 3.18016 8.08549 3.10984 8.01517C3.03951 7.94484 3 7.84946 3 7.75V4.75C3 4.65054 3.03951 4.55516 3.10984 4.48484C3.18016 4.41451 3.27554 4.375 3.375 4.375C3.47446 4.375 3.56984 4.41451 3.64016 4.48484C3.71049 4.55516 3.75 4.65054 3.75 4.75V7.75ZM6 7.75C6 7.84946 5.96049 7.94484 5.89017 8.01517C5.81984 8.08549 5.72446 8.125 5.625 8.125C5.52554 8.125 5.43016 8.08549 5.35983 8.01517C5.28951 7.94484 5.25 7.84946 5.25 7.75V4.75C5.25 4.65054 5.28951 4.55516 5.35983 4.48484C5.43016 4.41451 5.52554 4.375 5.625 4.375C5.72446 4.375 5.81984 4.41451 5.89017 4.48484C5.96049 4.55516 6 4.65054 6 4.75V7.75ZM6 2.125H3V1.75C3 1.65054 3.03951 1.55516 3.10984 1.48484C3.18016 1.41451 3.27554 1.375 3.375 1.375H5.625C5.72446 1.375 5.81984 1.41451 5.89017 1.48484C5.96049 1.55516 6 1.65054 6 1.75V2.125Z" fill="#FF6969"/>
</svg>
