<svg width="16" height="16" viewBox="0 0 16 16" fill="none" xmlns="http://www.w3.org/2000/svg">
<g id="Frame 1171280191">
<path id="Union" fill-rule="evenodd" clip-rule="evenodd" d="M9.39394 4.64095L10.5809 3.33805C10.9528 2.92978 11.5986 2.88503 12.0233 3.23811L12.8166 3.89764C13.2413 4.25071 13.284 4.86791 12.9121 5.27617L12.2328 6.02184L9.90182 4.08392L9.39418 4.64115L9.39394 4.64095ZM9.39418 4.64115L3.36473 11.2596C3.21832 11.4204 3.13038 11.622 3.11422 11.834L3.0014 13.315C2.97673 13.6388 3.28284 13.8933 3.61516 13.8253L5.13505 13.5141C5.35263 13.4695 5.54953 13.3585 5.69595 13.1978L12.233 6.02204L12.2328 6.02184L11.7252 6.57907L9.39418 4.64115Z" fill="#8490A0"/>
<path id="Line 59" d="M7.98499 12.875L13.985 12.875" stroke="#8490A0" stroke-linecap="round"/>
</g>
</svg>
