<svg width="15" height="15" viewBox="0 0 15 15" fill="none" xmlns="http://www.w3.org/2000/svg">
<path d="M7.5 0C6.01664 0 4.56659 0.439867 3.33323 1.26398C2.09986 2.08809 1.13856 3.25943 0.570907 4.62987C0.00324963 6.00032 -0.145275 7.50832 0.144114 8.96318C0.433503 10.418 1.14781 11.7544 2.1967 12.8033C3.2456 13.8522 4.58197 14.5665 6.03682 14.8559C7.49168 15.1453 8.99968 14.9967 10.3701 14.4291C11.7406 13.8614 12.9119 12.9001 13.736 11.6668C14.5601 10.4334 15 8.98336 15 7.5C14.9979 5.51152 14.207 3.60509 12.801 2.19902C11.3949 0.79295 9.48848 0.00209987 7.5 0ZM6.92308 4.03846C6.92308 3.88545 6.98386 3.73871 7.09206 3.63051C7.20025 3.52232 7.34699 3.46154 7.5 3.46154C7.65301 3.46154 7.79975 3.52232 7.90795 3.63051C8.01614 3.73871 8.07692 3.88545 8.07692 4.03846V8.07692C8.07692 8.22993 8.01614 8.37667 7.90795 8.48487C7.79975 8.59306 7.65301 8.65384 7.5 8.65384C7.34699 8.65384 7.20025 8.59306 7.09206 8.48487C6.98386 8.37667 6.92308 8.22993 6.92308 8.07692V4.03846ZM7.5 11.5385C7.32885 11.5385 7.16153 11.4877 7.01922 11.3926C6.87691 11.2975 6.76599 11.1624 6.70049 11.0042C6.63499 10.8461 6.61785 10.6721 6.65125 10.5042C6.68464 10.3364 6.76706 10.1822 6.88808 10.0612C7.00911 9.94013 7.16331 9.85771 7.33117 9.82432C7.49904 9.79093 7.67304 9.80807 7.83117 9.87356C7.9893 9.93906 8.12445 10.05 8.21954 10.1923C8.31463 10.3346 8.36539 10.5019 8.36539 10.6731C8.36539 10.9026 8.27421 11.1227 8.11192 11.285C7.94963 11.4473 7.72952 11.5385 7.5 11.5385Z" fill="white"/>
</svg>
