<svg width="26" height="26" viewBox="0 0 26 26" fill="none" xmlns="http://www.w3.org/2000/svg">
<path d="M26 10.5V15.5C26 16.0304 25.7893 16.5391 25.4142 16.9142C25.0391 17.2893 24.5304 17.5 24 17.5H17.5V24C17.5 24.5304 17.2893 25.0391 16.9142 25.4142C16.5391 25.7893 16.0304 26 15.5 26H10.5C9.96957 26 9.46086 25.7893 9.08579 25.4142C8.71071 25.0391 8.5 24.5304 8.5 24V17.5H2C1.46957 17.5 0.960859 17.2893 0.585786 16.9142C0.210714 16.5391 0 16.0304 0 15.5V10.5C0 9.96957 0.210714 9.46086 0.585786 9.08579C0.960859 8.71071 1.46957 8.5 2 8.5H8.5V2C8.5 1.46957 8.71071 0.960859 9.08579 0.585786C9.46086 0.210714 9.96957 0 10.5 0H15.5C16.0304 0 16.5391 0.210714 16.9142 0.585786C17.2893 0.960859 17.5 1.46957 17.5 2V8.5H24C24.5304 8.5 25.0391 8.71071 25.4142 9.08579C25.7893 9.46086 26 9.96957 26 10.5Z" fill="#FF6969"/>
</svg>
