<svg width="26" height="26" viewBox="0 0 26 26" fill="none" xmlns="http://www.w3.org/2000/svg">
<path d="M26 12.4795V24.96C26 25.2358 25.8859 25.5003 25.6827 25.6954C25.4795 25.8904 25.204 26 24.9167 26H17.3333C17.046 26 16.7705 25.8904 16.5673 25.6954C16.3641 25.5003 16.25 25.2358 16.25 24.96V18.1997C16.25 18.0618 16.1929 17.9295 16.0914 17.832C15.9898 17.7345 15.852 17.6797 15.7083 17.6797H10.2917C10.148 17.6797 10.0102 17.7345 9.90865 17.832C9.80707 17.9295 9.75 18.0618 9.75 18.1997V24.96C9.75 25.2358 9.63586 25.5003 9.4327 25.6954C9.22953 25.8904 8.95399 26 8.66667 26H1.08333C0.796016 26 0.520466 25.8904 0.317301 25.6954C0.114137 25.5003 0 25.2358 0 24.96V12.4795C0.00026635 11.9279 0.228714 11.399 0.635104 11.0091L11.4684 0.608759C11.8747 0.218963 12.4256 0 13 0C13.5744 0 14.1253 0.218963 14.5316 0.608759L25.3649 11.0091C25.7713 11.399 25.9997 11.9279 26 12.4795Z" fill="#FF6969"/>
</svg>
