<svg width="26" height="26" viewBox="0 0 26 26" fill="none" xmlns="http://www.w3.org/2000/svg">
<path d="M25.8526 24.4179C23.9507 20.9986 21.0198 18.5468 17.5993 17.3845C19.2912 16.3371 20.6057 14.7411 21.341 12.8416C22.0762 10.9421 22.1915 8.84415 21.6692 6.8699C21.1469 4.89565 20.0158 3.15428 18.4497 1.91321C16.8836 0.672145 14.969 0 13 0C11.031 0 9.11641 0.672145 7.55029 1.91321C5.98417 3.15428 4.85311 4.89565 4.33079 6.8699C3.80848 8.84415 3.92379 10.9421 4.65903 12.8416C5.39427 14.7411 6.70878 16.3371 8.40069 17.3845C4.98024 18.5455 2.04932 20.9973 0.147403 24.4179C0.0776566 24.5362 0.0313942 24.6678 0.0113455 24.805C-0.00870317 24.9421 -0.00213203 25.0821 0.0306712 25.2165C0.0634745 25.351 0.121845 25.4773 0.20234 25.5879C0.282835 25.6986 0.383822 25.7913 0.499345 25.8607C0.614867 25.9301 0.742585 25.9747 0.874961 25.992C1.00734 26.0092 1.14169 25.9987 1.2701 25.961C1.3985 25.9234 1.51836 25.8594 1.62259 25.7728C1.72682 25.6862 1.81332 25.5788 1.87698 25.4569C4.22971 21.2285 8.3882 18.7039 13 18.7039C17.6118 18.7039 21.7703 21.2285 24.123 25.4569C24.1867 25.5788 24.2732 25.6862 24.3774 25.7728C24.4816 25.8594 24.6015 25.9234 24.7299 25.961C24.8583 25.9987 24.9927 26.0092 25.125 25.992C25.2574 25.9747 25.3851 25.9301 25.5007 25.8607C25.6162 25.7913 25.7172 25.6986 25.7977 25.5879C25.8782 25.4773 25.9365 25.351 25.9693 25.2165C26.0021 25.0821 26.0087 24.9421 25.9887 24.805C25.9686 24.6678 25.9223 24.5362 25.8526 24.4179ZM6.00675 9.35373C6.00675 7.91539 6.4169 6.50935 7.18532 5.31342C7.95375 4.11748 9.04595 3.18536 10.3238 2.63493C11.6016 2.0845 13.0078 1.94049 14.3643 2.22109C15.7209 2.5017 16.967 3.19432 17.945 4.21138C18.923 5.22845 19.589 6.52426 19.8589 7.93496C20.1287 9.34567 19.9902 10.8079 19.4609 12.1368C18.9316 13.4656 18.0353 14.6014 16.8852 15.4005C15.7352 16.1996 14.3831 16.6261 13 16.6261C11.1459 16.624 9.36828 15.8572 8.05722 14.4938C6.74616 13.1304 6.00873 11.2819 6.00675 9.35373Z" fill="#9C9CA1" fill-opacity="0.7"/>
</svg>
