<svg width="26" height="26" viewBox="0 0 26 26" fill="none" xmlns="http://www.w3.org/2000/svg">
<path d="M25.3649 11.0086L14.5316 0.608728C14.1253 0.218952 13.5744 0 13 0C12.4256 0 11.8747 0.218952 11.4684 0.608728L0.635117 11.0086C0.432946 11.2012 0.272686 11.4305 0.163656 11.6832C0.0546251 11.9358 -0.00100026 12.2067 1.36141e-05 12.4802V24.96C1.36141e-05 25.2358 0.11415 25.5004 0.317314 25.6954C0.520479 25.8904 0.796028 26 1.08335 26H9.75C10.0373 26 10.3129 25.8904 10.516 25.6954C10.7192 25.5004 10.8333 25.2358 10.8333 24.96V17.6801H15.1667V24.96C15.1667 25.2358 15.2808 25.5004 15.484 25.6954C15.6871 25.8904 15.9627 26 16.25 26H24.9167C25.204 26 25.4795 25.8904 25.6827 25.6954C25.8859 25.5004 26 25.2358 26 24.96V12.4802C26.001 12.2067 25.9454 11.9358 25.8363 11.6832C25.7273 11.4305 25.5671 11.2012 25.3649 11.0086ZM23.8333 23.92H17.3333V16.6401C17.3333 16.3643 17.2192 16.0998 17.016 15.9047C16.8129 15.7097 16.5373 15.6001 16.25 15.6001H9.75C9.46269 15.6001 9.18714 15.7097 8.98397 15.9047C8.78081 16.0998 8.66667 16.3643 8.66667 16.6401V23.92H2.16668V12.4802L13 2.08031L23.8333 12.4802V23.92Z" fill="#9C9CA1" fill-opacity="0.7"/>
</svg>
