<svg width="14" height="15" viewBox="0 0 14 15" fill="none" xmlns="http://www.w3.org/2000/svg">
<path d="M7 0.0883789C5.61553 0.0883789 4.26215 0.498922 3.11101 1.26809C1.95987 2.03726 1.06266 3.13051 0.532846 4.40959C0.00303296 5.68868 -0.13559 7.09614 0.134506 8.45401C0.404603 9.81188 1.07129 11.0592 2.05026 12.0381C3.02922 13.0171 4.2765 13.6838 5.63437 13.9539C6.99224 14.224 8.3997 14.0853 9.67878 13.5555C10.9579 13.0257 12.0511 12.1285 12.8203 10.9774C13.5895 9.82622 14 8.47285 14 7.08838C13.998 5.23246 13.2599 3.45313 11.9476 2.1408C10.6353 0.828466 8.85592 0.0903388 7 0.0883789ZM10.0733 7.46934L7.91942 9.62319C7.81839 9.72422 7.68135 9.78098 7.53846 9.78098C7.39557 9.78098 7.25854 9.72422 7.1575 9.62319C7.05646 9.52215 6.9997 9.38511 6.9997 9.24222C6.9997 9.09933 7.05646 8.9623 7.1575 8.86126L8.3926 7.62684H4.30769C4.16489 7.62684 4.02793 7.57011 3.92694 7.46913C3.82596 7.36815 3.76923 7.23119 3.76923 7.08838C3.76923 6.94557 3.82596 6.80861 3.92694 6.70763C4.02793 6.60665 4.16489 6.54992 4.30769 6.54992H8.3926L7.1575 5.31549C7.05646 5.21446 6.9997 5.07742 6.9997 4.93453C6.9997 4.79164 7.05646 4.65461 7.1575 4.55357C7.25854 4.45253 7.39557 4.39577 7.53846 4.39577C7.68135 4.39577 7.81839 4.45253 7.91942 4.55357L10.0733 6.70742C10.1233 6.75742 10.1631 6.81681 10.1901 6.88218C10.2172 6.94755 10.2312 7.01762 10.2312 7.08838C10.2312 7.15914 10.2172 7.22921 10.1901 7.29458C10.1631 7.35994 10.1233 7.41933 10.0733 7.46934Z" fill="white"/>
</svg>
