<svg width="44" height="44" viewBox="0 0 44 44" fill="none" xmlns="http://www.w3.org/2000/svg">
<rect x="0.34314" y="0.5" width="43.3137" height="43.3137" rx="21.6569" fill="#FF6969" fill-opacity="0.6"/>
<path d="M33 16.0013H28.615C28.6637 15.96 28.7137 15.92 28.7612 15.8763C29.1409 15.539 29.4468 15.1271 29.66 14.6662C29.8731 14.2053 29.9889 13.7054 30 13.1977C30.0164 12.6423 29.9191 12.0895 29.7142 11.573C29.5092 11.0566 29.2008 10.5876 28.8079 10.1946C28.4151 9.80168 27.9461 9.49318 27.4297 9.28805C26.9133 9.08292 26.3604 8.98549 25.805 9.00175C25.2971 9.01268 24.7969 9.12834 24.3358 9.34148C23.8746 9.55462 23.4624 9.86065 23.125 10.2404C22.6581 10.7815 22.2785 11.3921 22 12.0503C21.7215 11.3921 21.3419 10.7815 20.875 10.2404C20.5376 9.86065 20.1254 9.55462 19.6642 9.34148C19.2031 9.12834 18.7029 9.01268 18.195 9.00175C17.6396 8.98549 17.0867 9.08292 16.5703 9.28805C16.0539 9.49318 15.5849 9.80168 15.1921 10.1946C14.7992 10.5876 14.4908 11.0566 14.2858 11.573C14.0809 12.0895 13.9836 12.6423 14 13.1977C14.0111 13.7054 14.1269 14.2053 14.34 14.6662C14.5532 15.1271 14.8591 15.539 15.2388 15.8763C15.2863 15.9175 15.3363 15.9575 15.385 16.0013H11C10.4696 16.0013 9.96086 16.212 9.58579 16.587C9.21071 16.962 9 17.4707 9 18.0011V22.0008C9 22.5312 9.21071 23.0399 9.58579 23.415C9.96086 23.79 10.4696 24.0007 11 24.0007V32.0001C11 32.5305 11.2107 33.0392 11.5858 33.4143C11.9609 33.7893 12.4696 34 13 34H20.5C20.6326 34 20.7598 33.9473 20.8536 33.8536C20.9473 33.7598 21 33.6326 21 33.5V22.0008H11V18.0011H21V22.0008H23V18.0011H33V22.0008H23V33.5C23 33.6326 23.0527 33.7598 23.1464 33.8536C23.2402 33.9473 23.3674 34 23.5 34H31C31.5304 34 32.0391 33.7893 32.4142 33.4143C32.7893 33.0392 33 32.5305 33 32.0001V24.0007C33.5304 24.0007 34.0391 23.79 34.4142 23.415C34.7893 23.0399 35 22.5312 35 22.0008V18.0011C35 17.4707 34.7893 16.962 34.4142 16.587C34.0391 16.212 33.5304 16.0013 33 16.0013ZM16.5638 14.3764C16.3889 14.218 16.2487 14.0253 16.1519 13.8102C16.0551 13.5951 16.0038 13.3623 16.0013 13.1265C15.9949 12.8501 16.0438 12.5753 16.1451 12.3181C16.2463 12.0608 16.3979 11.8264 16.5909 11.6285C16.784 11.4306 17.0145 11.2733 17.2691 11.1656C17.5238 11.058 17.7973 11.0022 18.0737 11.0016H18.135C18.3709 11.0041 18.6037 11.0554 18.8188 11.1522C19.0339 11.249 19.2267 11.3892 19.385 11.5641C20.4338 12.749 20.8038 14.7138 20.9338 15.9288C19.7137 15.8 17.75 15.43 16.5638 14.3764ZM27.4387 14.3764C26.2525 15.4263 24.2837 15.7963 23.0637 15.9263C23.2125 14.6126 23.625 12.689 24.625 11.5653C24.7833 11.3905 24.9761 11.2503 25.1912 11.1535C25.4063 11.0567 25.6391 11.0054 25.875 11.0029H25.9363C26.2127 11.0046 26.486 11.0615 26.7402 11.1702C26.9944 11.2789 27.2244 11.4372 27.4166 11.636C27.6088 11.8347 27.7594 12.0697 27.8596 12.3274C27.9597 12.5851 28.0075 12.8601 28 13.1365C27.9959 13.3707 27.9438 13.6016 27.8468 13.8149C27.7498 14.0282 27.6101 14.2193 27.4363 14.3764H27.4387Z" fill="white"/>
</svg>
