<svg width="87" height="74" viewBox="0 0 87 74" fill="none" xmlns="http://www.w3.org/2000/svg">
<path d="M39.9338 9.07853C39.9338 4.1134 43.9247 0.0883789 48.8478 0.0883789H78.0855C83.0085 0.0883789 86.9994 4.11341 86.9994 9.07853V24.5416C86.9994 29.5067 83.0085 33.5317 78.0855 33.5317H48.8478C43.9247 33.5317 39.9338 29.5067 39.9338 24.5416V9.07853Z" fill="#FF6969"/>
<g filter="url(#filter0_b_614_6007)">
<path d="M64.1803 40.7239C64.1803 58.5983 49.8131 73.0884 32.0902 73.0884C14.3673 73.0884 0 58.5983 0 40.7239C0 22.8495 14.3673 8.35938 32.0902 8.35938C49.8131 8.35938 64.1803 22.8495 64.1803 40.7239Z" fill="url(#paint0_linear_614_6007)" fill-opacity="0.3"/>
</g>
<g filter="url(#filter1_b_614_6007)">
<path fill-rule="evenodd" clip-rule="evenodd" d="M32.0902 72.9086C49.7146 72.9086 64.002 58.499 64.002 40.7239C64.002 22.9488 49.7146 8.53918 32.0902 8.53918C14.4657 8.53918 0.178279 22.9488 0.178279 40.7239C0.178279 58.499 14.4657 72.9086 32.0902 72.9086ZM32.0902 73.0884C49.8131 73.0884 64.1803 58.5983 64.1803 40.7239C64.1803 22.8495 49.8131 8.35938 32.0902 8.35938C14.3673 8.35938 0 22.8495 0 40.7239C0 58.5983 14.3673 73.0884 32.0902 73.0884Z" fill="url(#paint1_linear_614_6007)"/>
<path fill-rule="evenodd" clip-rule="evenodd" d="M32.0902 72.9086C49.7146 72.9086 64.002 58.499 64.002 40.7239C64.002 22.9488 49.7146 8.53918 32.0902 8.53918C14.4657 8.53918 0.178279 22.9488 0.178279 40.7239C0.178279 58.499 14.4657 72.9086 32.0902 72.9086ZM32.0902 73.0884C49.8131 73.0884 64.1803 58.5983 64.1803 40.7239C64.1803 22.8495 49.8131 8.35938 32.0902 8.35938C14.3673 8.35938 0 22.8495 0 40.7239C0 58.5983 14.3673 73.0884 32.0902 73.0884Z" fill="url(#paint2_radial_614_6007)"/>
</g>
<ellipse cx="20.323" cy="33.5316" rx="3.56557" ry="3.59606" fill="white"/>
<ellipse cx="43.4994" cy="33.5316" rx="3.56557" ry="3.59606" fill="white"/>
<path d="M40.7215 46.4301C41.7575 46.9532 42.1911 48.229 41.503 49.1637C40.5768 50.4219 39.4118 51.4913 38.0688 52.3059C36.1275 53.4835 33.8942 54.0799 31.6295 54.0258C29.3648 53.9716 27.162 53.269 25.2782 52C23.9749 51.122 22.8615 49.998 21.9954 48.6968C21.3523 47.7307 21.8459 46.4767 22.9057 46.0035C23.975 45.5261 25.2099 46.0371 25.9515 46.9435C26.4287 47.5268 26.9901 48.0399 27.6199 48.4642C28.8388 49.2853 30.2641 49.7399 31.7294 49.775C33.1948 49.81 34.6399 49.4241 35.896 48.6622C36.5443 48.2689 37.1285 47.7839 37.6323 47.2248C38.4168 46.3542 39.6755 45.9019 40.7215 46.4301Z" fill="white"/>
<defs>
<filter id="filter0_b_614_6007" x="-30" y="-21.6406" width="124.18" height="124.729" filterUnits="userSpaceOnUse" color-interpolation-filters="sRGB">
<feFlood flood-opacity="0" result="BackgroundImageFix"/>
<feGaussianBlur in="BackgroundImageFix" stdDeviation="15"/>
<feComposite in2="SourceAlpha" operator="in" result="effect1_backgroundBlur_614_6007"/>
<feBlend mode="normal" in="SourceGraphic" in2="effect1_backgroundBlur_614_6007" result="shape"/>
</filter>
<filter id="filter1_b_614_6007" x="-30" y="-21.6406" width="124.18" height="124.729" filterUnits="userSpaceOnUse" color-interpolation-filters="sRGB">
<feFlood flood-opacity="0" result="BackgroundImageFix"/>
<feGaussianBlur in="BackgroundImageFix" stdDeviation="15"/>
<feComposite in2="SourceAlpha" operator="in" result="effect1_backgroundBlur_614_6007"/>
<feBlend mode="normal" in="SourceGraphic" in2="effect1_backgroundBlur_614_6007" result="shape"/>
</filter>
<linearGradient id="paint0_linear_614_6007" x1="6.868" y1="14.3314" x2="76.3903" y2="50.024" gradientUnits="userSpaceOnUse">
<stop stop-color="#FFB4B4"/>
<stop offset="0.447036" stop-color="#FF6969" stop-opacity="0.96"/>
<stop offset="1" stop-color="#FF7979" stop-opacity="0.9"/>
</linearGradient>
<linearGradient id="paint1_linear_614_6007" x1="9.23628" y1="6.04762" x2="69.6539" y2="41.0243" gradientUnits="userSpaceOnUse">
<stop offset="0.188941" stop-color="#FFC4CE" stop-opacity="0.523483"/>
<stop offset="0.526042" stop-color="#FF244A"/>
<stop offset="1" stop-color="#FFBFCA" stop-opacity="0.1"/>
</linearGradient>
<radialGradient id="paint2_radial_614_6007" cx="0" cy="0" r="1" gradientUnits="userSpaceOnUse" gradientTransform="translate(9.59152 70.9693) rotate(-51.2157) scale(50.6632 82.6912)">
<stop stop-color="white"/>
<stop offset="1" stop-color="white" stop-opacity="0"/>
</radialGradient>
</defs>
</svg>
