<svg width="26" height="40" viewBox="0 0 26 40" fill="none" xmlns="http://www.w3.org/2000/svg">
<path d="M25.3649 11.0086L14.5316 0.608728C14.1253 0.218952 13.5744 0 13 0C12.4256 0 11.8747 0.218952 11.4684 0.608728L0.635117 11.0086C0.432946 11.2012 0.272686 11.4305 0.163656 11.6832C0.0546251 11.9358 -0.00100026 12.2067 1.36141e-05 12.4802V24.96C1.36141e-05 25.2358 0.11415 25.5004 0.317314 25.6954C0.520479 25.8904 0.796028 26 1.08335 26H9.75C10.0373 26 10.3129 25.8904 10.516 25.6954C10.7192 25.5004 10.8333 25.2358 10.8333 24.96V17.6801H15.1667V24.96C15.1667 25.2358 15.2808 25.5004 15.484 25.6954C15.6871 25.8904 15.9627 26 16.25 26H24.9167C25.204 26 25.4795 25.8904 25.6827 25.6954C25.8859 25.5004 26 25.2358 26 24.96V12.4802C26.001 12.2067 25.9454 11.9358 25.8363 11.6832C25.7273 11.4305 25.5671 11.2012 25.3649 11.0086ZM23.8333 23.92H17.3333V16.6401C17.3333 16.3643 17.2192 16.0998 17.016 15.9047C16.8129 15.7097 16.5373 15.6001 16.25 15.6001H9.75C9.46269 15.6001 9.18714 15.7097 8.98397 15.9047C8.78081 16.0998 8.66667 16.3643 8.66667 16.6401V23.92H2.16668V12.4802L13 2.08031L23.8333 12.4802V23.92Z" fill="#9C9CA1" fill-opacity="0.7"/>
<path d="M15.9599 37.12V39.61H10.0099V37.12H15.9599ZM9.02988 35.83H12.6099V35.13C11.8232 35.1033 11.2199 34.9867 10.7999 34.78C10.3799 34.5667 10.1699 34.2733 10.1699 33.9C10.1699 33.5 10.4099 33.1933 10.8899 32.98C11.3765 32.7667 12.0732 32.66 12.9799 32.66C13.8865 32.66 14.5799 32.7667 15.0599 32.98C15.5465 33.1933 15.7899 33.5 15.7899 33.9C15.7899 34.2733 15.5799 34.5667 15.1599 34.78C14.7399 34.9867 14.1399 35.1033 13.3599 35.13V35.83H16.9299V36.43H9.02988V35.83ZM9.44988 31.71H12.6099V30.84H13.3599V31.71H16.4699V32.3H9.44988V31.71ZM15.2299 39.03V37.69H10.7399V39.03H15.2299ZM10.9599 33.9C10.9599 34.1267 11.1332 34.3033 11.4799 34.43C11.8332 34.55 12.3332 34.61 12.9799 34.61C13.6265 34.61 14.1232 34.55 14.4699 34.43C14.8232 34.3033 14.9999 34.1267 14.9999 33.9C14.9999 33.6733 14.8232 33.5 14.4699 33.38C14.1232 33.2533 13.6265 33.19 12.9799 33.19C12.3332 33.19 11.8332 33.2533 11.4799 33.38C11.1332 33.5 10.9599 33.6733 10.9599 33.9Z" fill="#9C9CA1" fill-opacity="0.7"/>
</svg>
