<svg width="44" height="44" viewBox="0 0 44 44" fill="none" xmlns="http://www.w3.org/2000/svg">
<rect y="0.343262" width="43.3137" height="43.3137" rx="21.6569" fill="#FF6969" fill-opacity="0.6"/>
<path d="M29.6479 12.2331H25.6236C25.1247 11.6988 24.5134 11.2713 23.8299 10.9787C23.1463 10.686 22.4058 10.5347 21.6569 10.5347C20.908 10.5347 20.1675 10.686 19.4839 10.9787C18.8004 11.2713 18.1891 11.6988 17.6902 12.2331H13.6659C13.1949 12.2331 12.7432 12.4121 12.4102 12.7306C12.0772 13.0492 11.8901 13.4812 11.8901 13.9317V31.7669C11.8901 32.2174 12.0772 32.6494 12.4102 32.968C12.7432 33.2865 13.1949 33.4655 13.6659 33.4655H29.6479C30.1189 33.4655 30.5706 33.2865 30.9036 32.968C31.2366 32.6494 31.4237 32.2174 31.4237 31.7669V13.9317C31.4237 13.4812 31.2366 13.0492 30.9036 12.7306C30.5706 12.4121 30.1189 12.2331 29.6479 12.2331ZM21.6569 12.2331C22.5988 12.2331 23.5022 12.591 24.1682 13.2281C24.8343 13.8652 25.2085 14.7293 25.2085 15.6303H18.1053C18.1053 14.7293 18.4795 13.8652 19.1456 13.2281C19.8116 12.591 20.715 12.2331 21.6569 12.2331ZM25.2085 25.8218H18.1053C17.8698 25.8218 17.644 25.7323 17.4775 25.5731C17.311 25.4138 17.2174 25.1978 17.2174 24.9725C17.2174 24.7473 17.311 24.5312 17.4775 24.372C17.644 24.2127 17.8698 24.1232 18.1053 24.1232H25.2085C25.444 24.1232 25.6698 24.2127 25.8363 24.372C26.0028 24.5312 26.0964 24.7473 26.0964 24.9725C26.0964 25.1978 26.0028 25.4138 25.8363 25.5731C25.6698 25.7323 25.444 25.8218 25.2085 25.8218ZM25.2085 22.4246H18.1053C17.8698 22.4246 17.644 22.3352 17.4775 22.1759C17.311 22.0166 17.2174 21.8006 17.2174 21.5753C17.2174 21.3501 17.311 21.1341 17.4775 20.9748C17.644 20.8155 17.8698 20.726 18.1053 20.726H25.2085C25.444 20.726 25.6698 20.8155 25.8363 20.9748C26.0028 21.1341 26.0964 21.3501 26.0964 21.5753C26.0964 21.8006 26.0028 22.0166 25.8363 22.1759C25.6698 22.3352 25.444 22.4246 25.2085 22.4246Z" fill="white"/>
</svg>
