<svg width="44" height="45" viewBox="0 0 44 45" fill="none" xmlns="http://www.w3.org/2000/svg">
<rect y="0.843262" width="43.3137" height="43.3137" rx="21.6569" fill="#FF6969" fill-opacity="0.6"/>
<path d="M34.4447 27.3003L24.1667 9.88795C23.9099 9.46135 23.5432 9.10764 23.1031 8.86188C22.663 8.61611 22.1646 8.48682 21.6575 8.48682C21.1503 8.48682 20.652 8.61611 20.2119 8.86188C19.7717 9.10764 19.4051 9.46135 19.1482 9.88795L8.87028 27.3003C8.62315 27.7129 8.49292 28.1822 8.49292 28.6601C8.49292 29.1379 8.62315 29.6072 8.87028 30.0198C9.12382 30.449 9.48986 30.8047 9.93082 31.0503C10.3718 31.2959 10.8718 31.4226 11.3795 31.4175H31.9354C32.4428 31.4222 32.9423 31.2953 33.3828 31.0497C33.8233 30.8041 34.189 30.4487 34.4423 30.0198C34.6898 29.6074 34.8205 29.1383 34.8209 28.6604C34.8213 28.1825 34.6915 27.7131 34.4447 27.3003ZM20.7172 17.6591C20.7172 17.4159 20.8163 17.1826 20.9926 17.0105C21.169 16.8385 21.4081 16.7419 21.6575 16.7419C21.9068 16.7419 22.146 16.8385 22.3223 17.0105C22.4987 17.1826 22.5977 17.4159 22.5977 17.6591V22.2452C22.5977 22.4885 22.4987 22.7218 22.3223 22.8938C22.146 23.0658 21.9068 23.1625 21.6575 23.1625C21.4081 23.1625 21.169 23.0658 20.9926 22.8938C20.8163 22.7218 20.7172 22.4885 20.7172 22.2452V17.6591ZM21.6575 27.7486C21.3785 27.7486 21.1059 27.6679 20.8739 27.5167C20.642 27.3655 20.4612 27.1506 20.3545 26.8992C20.2477 26.6478 20.2198 26.3712 20.2742 26.1043C20.3286 25.8374 20.463 25.5923 20.6602 25.3999C20.8575 25.2075 21.1088 25.0764 21.3823 25.0233C21.6559 24.9703 21.9395 24.9975 22.1972 25.1016C22.4549 25.2058 22.6752 25.3821 22.8301 25.6084C22.9851 25.8346 23.0678 26.1006 23.0678 26.3727C23.0678 26.7376 22.9192 27.0876 22.6548 27.3456C22.3903 27.6036 22.0315 27.7486 21.6575 27.7486Z" fill="white"/>
</svg>
