<svg width="44" height="40" viewBox="0 0 44 40" fill="none" xmlns="http://www.w3.org/2000/svg">
<path d="M34.8526 24.4179C32.9507 20.9986 30.0198 18.5468 26.5993 17.3845C28.2912 16.3371 29.6057 14.7411 30.341 12.8416C31.0762 10.9421 31.1915 8.84415 30.6692 6.8699C30.1469 4.89565 29.0158 3.15428 27.4497 1.91321C25.8836 0.672145 23.969 0 22 0C20.031 0 18.1164 0.672145 16.5503 1.91321C14.9842 3.15428 13.8531 4.89565 13.3308 6.8699C12.8085 8.84415 12.9238 10.9421 13.659 12.8416C14.3943 14.7411 15.7088 16.3371 17.4007 17.3845C13.9802 18.5455 11.0493 20.9973 9.1474 24.4179C9.07766 24.5362 9.03139 24.6678 9.01135 24.805C8.9913 24.9421 8.99787 25.0821 9.03067 25.2165C9.06347 25.351 9.12185 25.4773 9.20234 25.5879C9.28283 25.6986 9.38382 25.7913 9.49934 25.8607C9.61487 25.9301 9.74258 25.9747 9.87496 25.992C10.0073 26.0092 10.1417 25.9987 10.2701 25.961C10.3985 25.9234 10.5184 25.8594 10.6226 25.7728C10.7268 25.6862 10.8133 25.5788 10.877 25.4569C13.2297 21.2285 17.3882 18.7039 22 18.7039C26.6118 18.7039 30.7703 21.2285 33.123 25.4569C33.1867 25.5788 33.2732 25.6862 33.3774 25.7728C33.4816 25.8594 33.6015 25.9234 33.7299 25.961C33.8583 25.9987 33.9927 26.0092 34.125 25.992C34.2574 25.9747 34.3851 25.9301 34.5007 25.8607C34.6162 25.7913 34.7172 25.6986 34.7977 25.5879C34.8782 25.4773 34.9365 25.351 34.9693 25.2165C35.0021 25.0821 35.0087 24.9421 34.9887 24.805C34.9686 24.6678 34.9223 24.5362 34.8526 24.4179ZM15.0067 9.35373C15.0067 7.91539 15.4169 6.50935 16.1853 5.31342C16.9538 4.11748 18.0459 3.18536 19.3238 2.63493C20.6016 2.0845 22.0078 1.94049 23.3643 2.22109C24.7209 2.5017 25.967 3.19432 26.945 4.21138C27.923 5.22845 28.589 6.52426 28.8589 7.93496C29.1287 9.34567 28.9902 10.8079 28.4609 12.1368C27.9316 13.4656 27.0353 14.6014 25.8852 15.4005C24.7352 16.1996 23.3831 16.6261 22 16.6261C20.1459 16.624 18.3683 15.8572 17.0572 14.4938C15.7462 13.1304 15.0087 11.2819 15.0067 9.35373Z" fill="#9C9CA1" fill-opacity="0.7"/>
<path d="M4.76 31.86V37.5H0.77V31.86H4.76ZM4.03 36.89V32.47H1.5V36.89H4.03ZM6.37 30.98H7.12V34.5H8.57V35.13H7.12V39.73H6.37V30.98ZM16.2802 30.97V39.74H15.5302V30.97H16.2802ZM9.46023 34.7C9.46023 34.0933 9.55357 33.56 9.74023 33.1C9.9269 32.64 10.1869 32.2867 10.5202 32.04C10.8602 31.7867 11.2469 31.66 11.6802 31.66C12.1069 31.66 12.4869 31.7867 12.8202 32.04C13.1602 32.2867 13.4236 32.64 13.6102 33.1C13.7969 33.56 13.8902 34.0933 13.8902 34.7C13.8902 35.3067 13.7969 35.8433 13.6102 36.31C13.4236 36.77 13.1602 37.1267 12.8202 37.38C12.4869 37.6267 12.1069 37.75 11.6802 37.75C11.2469 37.75 10.8602 37.6267 10.5202 37.38C10.1869 37.1267 9.9269 36.77 9.74023 36.31C9.55357 35.85 9.46023 35.3133 9.46023 34.7ZM10.1902 34.7C10.1902 35.1733 10.2536 35.59 10.3802 35.95C10.5069 36.31 10.6802 36.59 10.9002 36.79C11.1269 36.9833 11.3869 37.08 11.6802 37.08C11.9669 37.08 12.2236 36.9833 12.4502 36.79C12.6769 36.59 12.8536 36.31 12.9802 35.95C13.1069 35.5833 13.1702 35.1667 13.1702 34.7C13.1702 34.2333 13.1069 33.82 12.9802 33.46C12.8536 33.1 12.6769 32.8233 12.4502 32.63C12.2236 32.43 11.9669 32.33 11.6802 32.33C11.3869 32.33 11.1269 32.43 10.9002 32.63C10.6802 32.8233 10.5069 33.1 10.3802 33.46C10.2536 33.8133 10.1902 34.2267 10.1902 34.7ZM25.3305 30.98V39.73H24.6105V30.98H25.3305ZM17.7805 36.92C18.1671 36.92 18.4738 36.9167 18.7005 36.91V32.72H17.9605V32.1H21.9605V32.72H21.2105V36.81C21.6305 36.77 21.9438 36.7367 22.1505 36.71L22.2105 37.27C21.1438 37.4633 19.6971 37.56 17.8705 37.56L17.7805 36.92ZM19.3905 36.9C19.6371 36.8933 20.0138 36.8767 20.5205 36.85V32.72H19.3905V36.9ZM21.6905 34.33H22.9205V31.2H23.6305V39.26H22.9205V34.99H21.6905V34.33ZM33.7607 30.97V39.74H33.0107V30.97H33.7607ZM26.9407 34.7C26.9407 34.0933 27.034 33.56 27.2207 33.1C27.4074 32.64 27.6674 32.2867 28.0007 32.04C28.3407 31.7867 28.7274 31.66 29.1607 31.66C29.5874 31.66 29.9674 31.7867 30.3007 32.04C30.6407 32.2867 30.904 32.64 31.0907 33.1C31.2774 33.56 31.3707 34.0933 31.3707 34.7C31.3707 35.3067 31.2774 35.8433 31.0907 36.31C30.904 36.77 30.6407 37.1267 30.3007 37.38C29.9674 37.6267 29.5874 37.75 29.1607 37.75C28.7274 37.75 28.3407 37.6267 28.0007 37.38C27.6674 37.1267 27.4074 36.77 27.2207 36.31C27.034 35.85 26.9407 35.3133 26.9407 34.7ZM27.6707 34.7C27.6707 35.1733 27.734 35.59 27.8607 35.95C27.9874 36.31 28.1607 36.59 28.3807 36.79C28.6074 36.9833 28.8674 37.08 29.1607 37.08C29.4474 37.08 29.704 36.9833 29.9307 36.79C30.1574 36.59 30.334 36.31 30.4607 35.95C30.5874 35.5833 30.6507 35.1667 30.6507 34.7C30.6507 34.2333 30.5874 33.82 30.4607 33.46C30.334 33.1 30.1574 32.8233 29.9307 32.63C29.704 32.43 29.4474 32.33 29.1607 32.33C28.8674 32.33 28.6074 32.43 28.3807 32.63C28.1607 32.8233 27.9874 33.1 27.8607 33.46C27.734 33.8133 27.6707 34.2267 27.6707 34.7ZM40.5209 31.88V32.51H38.4409V33.69C38.4409 34.17 38.5476 34.65 38.7609 35.13C38.9809 35.6033 39.2709 36.0267 39.6309 36.4C39.9909 36.7667 40.3809 37.0433 40.8009 37.23L40.3709 37.83C39.8643 37.59 39.4043 37.23 38.9909 36.75C38.5776 36.27 38.2709 35.73 38.0709 35.13C37.8709 35.7767 37.5643 36.36 37.1509 36.88C36.7443 37.4 36.2909 37.7867 35.7909 38.04L35.3609 37.45C35.7676 37.25 36.1509 36.95 36.5109 36.55C36.8709 36.1433 37.1576 35.6867 37.3709 35.18C37.5843 34.6733 37.6909 34.1767 37.6909 33.69V32.51H35.6309V31.88H40.5209ZM41.7409 30.98H42.4909V39.73H41.7409V30.98Z" fill="#9C9CA1" fill-opacity="0.7"/>
</svg>
