<svg width="10" height="10" viewBox="0 0 10 10" fill="none" xmlns="http://www.w3.org/2000/svg">
<g id="Vector">
<path id="Vector_2" d="M5 0.5C4.10999 0.5 3.23996 0.76392 2.49994 1.25839C1.75991 1.75285 1.18314 2.45566 0.842544 3.27792C0.50195 4.10019 0.412835 5.00499 0.586468 5.87791C0.760102 6.75082 1.18868 7.55264 1.81802 8.18198C2.44736 8.81131 3.24918 9.2399 4.12209 9.41353C4.99501 9.58716 5.89981 9.49805 6.72208 9.15746C7.54434 8.81686 8.24715 8.24009 8.74161 7.50006C9.23608 6.76004 9.5 5.89001 9.5 5C9.49874 3.80691 9.02423 2.66305 8.18059 1.81941C7.33695 0.97577 6.19309 0.50126 5 0.5ZM6.62952 6.13971C6.66168 6.17187 6.68719 6.21005 6.7046 6.25207C6.722 6.29409 6.73096 6.33913 6.73096 6.38461C6.73096 6.4301 6.722 6.47513 6.7046 6.51716C6.68719 6.55918 6.66168 6.59736 6.62952 6.62952C6.59736 6.66168 6.55918 6.68719 6.51716 6.7046C6.47514 6.722 6.4301 6.73096 6.38462 6.73096C6.33913 6.73096 6.2941 6.722 6.25208 6.7046C6.21005 6.68719 6.17187 6.66168 6.13971 6.62952L5 5.48937L3.86029 6.62952C3.82813 6.66168 3.78995 6.68719 3.74793 6.7046C3.70591 6.722 3.66087 6.73096 3.61539 6.73096C3.5699 6.73096 3.52487 6.722 3.48284 6.7046C3.44082 6.68719 3.40264 6.66168 3.37048 6.62952C3.33832 6.59736 3.31281 6.55918 3.2954 6.51716C3.278 6.47513 3.26904 6.4301 3.26904 6.38461C3.26904 6.33913 3.278 6.29409 3.2954 6.25207C3.31281 6.21005 3.33832 6.17187 3.37048 6.13971L4.51063 5L3.37048 3.86029C3.30553 3.79534 3.26904 3.70724 3.26904 3.61538C3.26904 3.52353 3.30553 3.43543 3.37048 3.37048C3.43543 3.30553 3.52353 3.26904 3.61539 3.26904C3.70724 3.26904 3.79534 3.30553 3.86029 3.37048L5 4.51062L6.13971 3.37048C6.17187 3.33832 6.21005 3.31281 6.25208 3.2954C6.2941 3.278 6.33913 3.26904 6.38462 3.26904C6.4301 3.26904 6.47514 3.278 6.51716 3.2954C6.55918 3.31281 6.59736 3.33832 6.62952 3.37048C6.66168 3.40264 6.68719 3.44082 6.7046 3.48284C6.722 3.52486 6.73096 3.5699 6.73096 3.61538C6.73096 3.66087 6.722 3.7059 6.7046 3.74793C6.68719 3.78995 6.66168 3.82813 6.62952 3.86029L5.48938 5L6.62952 6.13971Z" fill="#FF6969"/>
</g>
</svg>
