<svg width="81" height="81" viewBox="0 0 81 81" fill="none" xmlns="http://www.w3.org/2000/svg">
<g id="Frame 127">
<rect width="81" height="81" rx="40.5" fill="#EAEAEC"/>
<path id="Vector" d="M63.5991 36.8178C63.5991 37.9704 63.2546 39.0971 62.609 40.0554C61.9635 41.0137 61.0459 41.7607 59.9724 42.2018C58.8989 42.6428 57.7176 42.7582 56.578 42.5334C55.4383 42.3085 54.3915 41.7535 53.5699 40.9385C52.7482 40.1235 52.1887 39.0851 51.962 37.9547C51.7353 36.8242 51.8517 35.6525 52.2963 34.5876C52.741 33.5228 53.494 32.6126 54.4601 31.9723C55.4263 31.3319 56.5622 30.9902 57.7241 30.9902C59.2823 30.9902 60.7766 31.6041 61.8784 32.697C62.9802 33.7899 63.5991 35.2722 63.5991 36.8178ZM28.3491 36.8178C28.3491 35.6652 28.0046 34.5385 27.359 33.5801C26.7135 32.6218 25.7959 31.8748 24.7224 31.4338C23.6489 30.9927 22.4676 30.8773 21.328 31.1021C20.1883 31.327 19.1415 31.882 18.3199 32.697C17.4982 33.512 16.9387 34.5504 16.712 35.6809C16.4853 36.8113 16.6017 37.983 17.0463 39.0479C17.491 40.1127 18.244 41.0229 19.2101 41.6632C20.1763 42.3036 21.3122 42.6454 22.4741 42.6454C24.0323 42.6454 25.5266 42.0314 26.6284 40.9385C27.7302 39.8456 28.3491 38.3633 28.3491 36.8178ZM32.5456 32.6552C33.7075 32.6552 34.8434 32.3134 35.8095 31.6731C36.7757 31.0327 37.5287 30.1226 37.9733 29.0577C38.418 27.9929 38.5344 26.8211 38.3077 25.6907C38.081 24.5602 37.5214 23.5219 36.6998 22.7069C35.8782 21.8919 34.8313 21.3368 33.6917 21.112C32.5521 20.8871 31.3708 21.0025 30.2973 21.4436C29.2238 21.8847 28.3062 22.6316 27.6607 23.59C27.0151 24.5483 26.6706 25.675 26.6706 26.8276C26.6706 28.3732 27.2895 29.8554 28.3913 30.9483C29.4931 32.0412 30.9874 32.6552 32.5456 32.6552ZM47.6527 32.6552C48.8147 32.6552 49.9505 32.3134 50.9167 31.6731C51.8828 31.0327 52.6358 30.1226 53.0805 29.0577C53.5252 27.9929 53.6415 26.8211 53.4148 25.6907C53.1881 24.5602 52.6286 23.5219 51.8069 22.7069C50.9853 21.8919 49.9385 21.3368 48.7988 21.112C47.6592 20.8871 46.4779 21.0025 45.4044 21.4436C44.3309 21.8847 43.4134 22.6316 42.7678 23.59C42.1223 24.5483 41.7777 25.675 41.7777 26.8276C41.7777 28.3732 42.3967 29.8554 43.4984 30.9483C44.6002 32.0412 46.0945 32.6552 47.6527 32.6552ZM52.5038 45.3219C51.6511 44.8553 50.8996 44.2265 50.2923 43.4716C49.6849 42.7166 49.2335 41.8502 48.9641 40.9221C48.406 39.0182 47.24 37.3454 45.6414 36.1552C44.0428 34.9649 42.098 34.3214 40.0991 34.3214C38.1003 34.3214 36.1554 34.9649 34.5568 36.1552C32.9582 37.3454 31.7923 39.0182 31.2342 40.9221C30.695 42.7897 29.4311 44.369 27.7197 45.3136C26.0778 46.1948 24.7791 47.5938 24.0287 49.2893C23.2784 50.9849 23.1194 52.8801 23.5768 54.6754C24.0342 56.4706 25.0819 58.0634 26.5543 59.2017C28.0266 60.34 29.8395 60.959 31.7063 60.9607C32.825 60.9638 33.9327 60.7422 34.9627 60.3092C38.2465 58.9659 41.9328 58.9659 45.2167 60.3092C47.2057 61.1673 49.4524 61.2282 51.4857 60.4793C53.519 59.7303 55.181 58.2296 56.1234 56.2918C57.0657 54.354 57.2151 52.1295 56.5403 50.0848C55.8655 48.0401 54.4189 46.3339 52.5038 45.324V45.3219Z" fill="white"/>
</g>
</svg>
