<svg width="11" height="12" viewBox="0 0 11 12" fill="none" xmlns="http://www.w3.org/2000/svg">
<path d="M10 8.52365C9.91133 9.26572 9.51137 10.0306 9 10.5237C8.48864 11.0167 7.67964 11.525 7 11.5237C3.05159 11.5237 2.00758e-06 7.8719 2.00758e-06 3.52365C-0.00121632 2.77519 0.552327 2.0868 1 1.52365C1.44768 0.960501 1.32617 0.6213 2 0.523652C2.1704 0.500739 2.85105 0.42969 3 0.523652C3.14896 0.617614 2.93175 1.3502 3 1.52365L4 3.52365C4.05226 3.65643 4.01102 4.37945 4 4.52365C3.98898 4.66785 4.07168 4.40236 4 4.52365C3.99105 4.53844 4.00995 4.50996 4 4.52365L3 5.52365C3.37247 6.35716 4.2332 7.11238 5 7.52365L6 6.52365C5.98704 6.53308 6.01189 6.51265 6 6.52365C6.11005 6.44282 6.86829 6.53704 7 6.52365C6.87838 6.46637 7.13172 6.51027 7 6.52365L10 7.52365C10.1578 7.59855 9.9144 8.35959 10 8.52365C10.0856 8.68771 10.0207 8.33581 10 8.52365Z" fill="#FF6969"/>
</svg>
