<svg width="20" height="19" viewBox="0 0 20 19" fill="none" xmlns="http://www.w3.org/2000/svg">
<g id="Group 95">
<path id="Vector" d="M15.3908 3.14257L15.4442 3.19772H15.521H18.0411C19.0105 3.19772 19.8087 4.013 19.8087 5.02721V16.0871C19.8087 17.1013 19.0105 17.9165 18.0411 17.9165H2.44901C1.47961 17.9165 0.681395 17.1013 0.681395 16.0871V5.02721C0.681395 4.013 1.47961 3.19772 2.44901 3.19772H4.96908H5.04588L5.09933 3.14257L7.73732 0.420842L7.73755 0.420605C7.81128 0.344257 7.89861 0.284024 7.99435 0.243087C8.09008 0.202155 8.1925 0.181242 8.29577 0.181396H8.29604L12.1941 0.181397L12.1943 0.181396C12.2976 0.181242 12.4 0.202155 12.4957 0.243087C12.5915 0.284024 12.6788 0.344257 12.7526 0.420606L12.7528 0.420842L15.3908 3.14257Z" fill="white" stroke="#C7C7C7" stroke-width="0.362791"/>
<circle id="Ellipse 242" cx="10.4871" cy="10.8754" r="3.62539" fill="white" stroke="#C7C7C7" stroke-width="1.08837"/>
</g>
</svg>
