<svg width="40" height="40" viewBox="0 0 40 40" fill="none" xmlns="http://www.w3.org/2000/svg">
<path d="M31 8H25V2C25 1.46957 24.7893 0.960859 24.4142 0.585786C24.0391 0.210714 23.5304 0 23 0H17C16.4696 0 15.9609 0.210714 15.5858 0.585786C15.2107 0.960859 15 1.46957 15 2V8H9C8.46957 8 7.96086 8.21071 7.58579 8.58579C7.21071 8.96086 7 9.46957 7 10V16C7 16.5304 7.21071 17.0391 7.58579 17.4142C7.96086 17.7893 8.46957 18 9 18H15V24C15 24.5304 15.2107 25.0391 15.5858 25.4142C15.9609 25.7893 16.4696 26 17 26H23C23.5304 26 24.0391 25.7893 24.4142 25.4142C24.7893 25.0391 25 24.5304 25 24V18H31C31.5304 18 32.0391 17.7893 32.4142 17.4142C32.7893 17.0391 33 16.5304 33 16V10C33 9.46957 32.7893 8.96086 32.4142 8.58579C32.0391 8.21071 31.5304 8 31 8ZM31 16H24C23.7348 16 23.4804 16.1054 23.2929 16.2929C23.1054 16.4804 23 16.7348 23 17V24H17V17C17 16.7348 16.8946 16.4804 16.7071 16.2929C16.5196 16.1054 16.2652 16 16 16H9V10H16C16.2652 10 16.5196 9.89464 16.7071 9.70711C16.8946 9.51957 17 9.26522 17 9V2H23V9C23 9.26522 23.1054 9.51957 23.2929 9.70711C23.4804 9.89464 23.7348 10 24 10H31V16Z" fill="#9C9CA1" fill-opacity="0.7"/>
<path d="M10.08 30.98V37.59H9.33V34.63H7.8V34H9.33V30.98H10.08ZM2.9 32.06H5.06V30.98H5.8V32.06H7.96V32.67H2.9V32.06ZM3.42 34.8C3.42 34.48 3.50667 34.1967 3.68 33.95C3.85333 33.7033 4.09 33.5133 4.39 33.38C4.69667 33.24 5.04333 33.17 5.43 33.17C5.81667 33.17 6.16 33.24 6.46 33.38C6.76667 33.5133 7.00667 33.7033 7.18 33.95C7.35333 34.1967 7.44 34.48 7.44 34.8C7.44 35.12 7.35333 35.4033 7.18 35.65C7.01333 35.89 6.77667 36.08 6.47 36.22C6.16333 36.3533 5.81667 36.42 5.43 36.42C5.04333 36.42 4.69667 36.3533 4.39 36.22C4.08333 36.08 3.84333 35.89 3.67 35.65C3.50333 35.4033 3.42 35.12 3.42 34.8ZM4.13 34.8C4.13 35.1067 4.25 35.3567 4.49 35.55C4.73667 35.7367 5.05 35.83 5.43 35.83C5.81 35.83 6.12 35.7367 6.36 35.55C6.60667 35.3567 6.73 35.1067 6.73 34.8C6.73 34.4933 6.60667 34.2433 6.36 34.05C6.12 33.8567 5.81 33.76 5.43 33.76C5.05 33.76 4.73667 33.8567 4.49 34.05C4.25 34.2433 4.13 34.4933 4.13 34.8ZM4.47 37.01H5.22V38.91H10.29V39.53H4.47V37.01ZM18.0702 32.92V30.98H18.8102V35.86H18.0702V35.09H16.5402V34.49H18.0702V33.53H16.5502V32.92H18.0702ZM11.6402 31.76H13.7602V30.87H14.5102V31.76H16.5602V32.35H11.6402V31.76ZM12.1502 34.28C12.1502 33.8267 12.3302 33.4633 12.6902 33.19C13.0569 32.9167 13.5369 32.78 14.1302 32.78C14.7169 32.78 15.1902 32.9167 15.5502 33.19C15.9169 33.4633 16.1002 33.8267 16.1002 34.28C16.1002 34.7267 15.9169 35.0833 15.5502 35.35C15.1902 35.6167 14.7169 35.75 14.1302 35.75C13.5369 35.75 13.0569 35.6167 12.6902 35.35C12.3302 35.0833 12.1502 34.7267 12.1502 34.28ZM12.8602 34.28C12.8602 34.5533 12.9769 34.7767 13.2102 34.95C13.4436 35.1233 13.7502 35.21 14.1302 35.21C14.5036 35.21 14.8069 35.1233 15.0402 34.95C15.2736 34.7767 15.3902 34.5533 15.3902 34.28C15.3902 34 15.2736 33.7767 15.0402 33.61C14.8136 33.4367 14.5102 33.35 14.1302 33.35C13.7502 33.35 13.4436 33.4333 13.2102 33.6C12.9769 33.7667 12.8602 33.9933 12.8602 34.28ZM13.1902 36.31H18.8102V38.18H13.9502V39.05H19.0602V39.63H13.2202V37.64H18.0702V36.87H13.1902V36.31ZM27.8005 30.98V39.73H27.0805V30.98H27.8005ZM20.4905 34.75C20.4905 34.1367 20.5671 33.6033 20.7205 33.15C20.8738 32.69 21.0871 32.3367 21.3605 32.09C21.6405 31.8433 21.9671 31.72 22.3405 31.72C22.7138 31.72 23.0405 31.8433 23.3205 32.09C23.6005 32.33 23.8171 32.67 23.9705 33.11H25.3705V31.18H26.0805V39.28H25.3705V36.39H23.9705C23.8171 36.8367 23.6005 37.1833 23.3205 37.43C23.0405 37.67 22.7138 37.79 22.3405 37.79C21.9671 37.79 21.6405 37.6667 21.3605 37.42C21.0871 37.1733 20.8738 36.82 20.7205 36.36C20.5671 35.9 20.4905 35.3633 20.4905 34.75ZM21.1805 34.75C21.1805 35.4633 21.2838 36.0333 21.4905 36.46C21.7038 36.88 21.9871 37.09 22.3405 37.09C22.7071 37.09 22.9971 36.88 23.2105 36.46C23.4238 36.0333 23.5305 35.4633 23.5305 34.75C23.5305 34.0367 23.4238 33.47 23.2105 33.05C22.9971 32.63 22.7071 32.42 22.3405 32.42C21.9871 32.42 21.7038 32.63 21.4905 33.05C21.2838 33.47 21.1805 34.0367 21.1805 34.75ZM25.3705 35.77V33.73H24.1305C24.1838 34.0633 24.2105 34.4033 24.2105 34.75C24.2105 35.0967 24.1838 35.4367 24.1305 35.77H25.3705ZM35.9007 30.98V32.34H37.1907V32.97H35.9007V34.2H37.1907V34.83H35.9007V36.18H35.1507V30.98H35.9007ZM29.3007 33.57C29.3007 33.17 29.3974 32.8133 29.5907 32.5C29.784 32.1867 30.054 31.9433 30.4007 31.77C30.7474 31.5967 31.1374 31.51 31.5707 31.51C32.004 31.51 32.3907 31.5967 32.7307 31.77C33.0774 31.9433 33.3474 32.1867 33.5407 32.5C33.7407 32.8133 33.8407 33.17 33.8407 33.57C33.8407 33.97 33.7407 34.3267 33.5407 34.64C33.3474 34.9533 33.0774 35.1967 32.7307 35.37C32.3907 35.5433 32.004 35.63 31.5707 35.63C31.1374 35.63 30.7474 35.5433 30.4007 35.37C30.054 35.1967 29.784 34.9533 29.5907 34.64C29.3974 34.3267 29.3007 33.97 29.3007 33.57ZM30.0307 33.57C30.0307 33.99 30.174 34.3333 30.4607 34.6C30.754 34.8667 31.124 35 31.5707 35C32.0174 35 32.3874 34.8667 32.6807 34.6C32.974 34.3333 33.1207 33.99 33.1207 33.57C33.1207 33.15 32.974 32.81 32.6807 32.55C32.3874 32.2833 32.0174 32.15 31.5707 32.15C31.124 32.15 30.754 32.2833 30.4607 32.55C30.174 32.81 30.0307 33.15 30.0307 33.57ZM30.2407 36.6H35.9007V39.73H35.1507V37.21H30.2407V36.6Z" fill="#9C9CA1" fill-opacity="0.7"/>
</svg>
