<svg width="11" height="12" viewBox="0 0 11 12" fill="none" xmlns="http://www.w3.org/2000/svg">
<g id="Vector">
<path id="Vector_2" d="M10.5417 1.84615H8.25V1.38462C8.25 1.01739 8.10513 0.66521 7.84727 0.405544C7.58941 0.145879 7.23967 0 6.875 0H4.125C3.76033 0 3.41059 0.145879 3.15273 0.405544C2.89487 0.66521 2.75 1.01739 2.75 1.38462V1.84615H0.458333C0.336776 1.84615 0.220197 1.89478 0.134243 1.98134C0.0482886 2.06789 0 2.18528 0 2.30769C0 2.4301 0.0482886 2.54749 0.134243 2.63405C0.220197 2.7206 0.336776 2.76923 0.458333 2.76923H0.916667V11.0769C0.916667 11.3217 1.01324 11.5565 1.18515 11.7296C1.35706 11.9027 1.59022 12 1.83333 12H9.16667C9.40978 12 9.64294 11.9027 9.81485 11.7296C9.98676 11.5565 10.0833 11.3217 10.0833 11.0769V2.76923H10.5417C10.6632 2.76923 10.7798 2.7206 10.8658 2.63405C10.9517 2.54749 11 2.4301 11 2.30769C11 2.18528 10.9517 2.06789 10.8658 1.98134C10.7798 1.89478 10.6632 1.84615 10.5417 1.84615ZM4.58333 8.76923C4.58333 8.89164 4.53504 9.00903 4.44909 9.09559C4.36314 9.18214 4.24656 9.23077 4.125 9.23077C4.00344 9.23077 3.88686 9.18214 3.80091 9.09559C3.71496 9.00903 3.66667 8.89164 3.66667 8.76923V5.07692C3.66667 4.95452 3.71496 4.83712 3.80091 4.75057C3.88686 4.66401 4.00344 4.61538 4.125 4.61538C4.24656 4.61538 4.36314 4.66401 4.44909 4.75057C4.53504 4.83712 4.58333 4.95452 4.58333 5.07692V8.76923ZM7.33333 8.76923C7.33333 8.89164 7.28505 9.00903 7.19909 9.09559C7.11314 9.18214 6.99656 9.23077 6.875 9.23077C6.75344 9.23077 6.63686 9.18214 6.55091 9.09559C6.46495 9.00903 6.41667 8.89164 6.41667 8.76923V5.07692C6.41667 4.95452 6.46495 4.83712 6.55091 4.75057C6.63686 4.66401 6.75344 4.61538 6.875 4.61538C6.99656 4.61538 7.11314 4.66401 7.19909 4.75057C7.28505 4.83712 7.33333 4.95452 7.33333 5.07692V8.76923ZM7.33333 1.84615H3.66667V1.38462C3.66667 1.26221 3.71496 1.14481 3.80091 1.05826C3.88686 0.971703 4.00344 0.923077 4.125 0.923077H6.875C6.99656 0.923077 7.11314 0.971703 7.19909 1.05826C7.28505 1.14481 7.33333 1.26221 7.33333 1.38462V1.84615Z" fill="#FF6969"/>
</g>
</svg>
