<svg width="9" height="13" viewBox="0 0 9 13" fill="none" xmlns="http://www.w3.org/2000/svg">
<path d="M5 0.48877C3.80694 0.490185 1.84362 0.606617 1 1.48877C0.15638 2.37092 0.00135344 4.24122 0 5.48877C0 9.51521 3.82562 12.3615 4 12.4888C4.06878 12.5392 4.91602 12.4888 5 12.4888C4.93122 12.5392 5.08398 12.4888 5 12.4888C5.17438 12.3615 9 9.51521 9 5.48877C8.99865 4.24122 8.84362 2.37092 8 1.48877C7.15638 0.606617 6.19306 0.490185 5 0.48877ZM5 3.48877C4.7309 3.30075 5.32364 3.48877 5 3.48877C5.2691 3.67679 5.87615 4.17611 6 4.48877C6.12385 4.80143 6.06314 5.15685 6 5.48877C5.93686 5.82069 6.22885 6.24947 6 6.48877C5.77115 6.72807 5.31742 6.42275 5 6.48877C4.68258 6.55479 4.29901 6.61828 4 6.48877C3.70099 6.35926 3.17981 6.77016 3 6.48877C2.82019 6.20738 3 5.82719 3 5.48877C3 5.03496 2.69312 4.80966 3 4.48877C3.30688 4.16788 4.56601 3.48877 5 3.48877Z" fill="#FF6969"/>
</svg>
