<svg width="27" height="24" viewBox="0 0 27 24" fill="none" xmlns="http://www.w3.org/2000/svg">
<path d="M25.5786 18.7735C26.2202 17.4494 26.535 15.9922 26.4969 14.5227C26.4588 13.0533 26.0688 11.6141 25.3594 10.3248C24.65 9.0354 23.6416 7.93307 22.418 7.10932C21.1944 6.28558 19.7909 5.76421 18.3242 5.58852C17.8361 4.4595 17.1265 3.43871 16.237 2.58593C15.3475 1.73315 14.2959 1.06552 13.1439 0.622142C11.9918 0.178764 10.7624 -0.0314527 9.52763 0.00380204C8.29288 0.0390568 7.07761 0.319074 5.95299 0.827457C4.82837 1.33584 3.817 2.06237 2.9781 2.9645C2.13921 3.86663 1.48965 4.92622 1.06747 6.08124C0.645293 7.23625 0.458978 8.46347 0.519436 9.69102C0.579894 10.9186 0.885911 12.1218 1.41957 13.2302L0.57573 16.0838C0.481382 16.4024 0.475073 16.7404 0.557468 17.0622C0.639862 17.3841 0.807914 17.6778 1.04394 17.9127C1.27997 18.1475 1.57525 18.3147 1.89872 18.3967C2.22218 18.4787 2.56188 18.4724 2.88206 18.3785L5.75018 17.539C6.67112 17.9792 7.65849 18.2659 8.67285 18.3878C9.16566 19.5366 9.88751 20.5741 10.7947 21.4375C11.702 22.301 12.7758 22.9724 13.9512 23.4112C15.1266 23.85 16.3793 24.0471 17.6335 23.9905C18.8876 23.934 20.1172 23.625 21.248 23.0823L24.1161 23.9218C24.4362 24.0156 24.7757 24.0218 25.099 23.9399C25.4224 23.858 25.7175 23.6909 25.9535 23.4562C26.1895 23.2215 26.3576 22.9279 26.4401 22.6063C26.5226 22.2846 26.5165 21.9468 26.4224 21.6283L25.5786 18.7735ZM23.6924 18.9433L24.6419 22.1503L21.4198 21.2068C21.187 21.1397 20.937 21.1658 20.7233 21.2795C19.0134 22.188 17.0145 22.396 15.1526 21.8593C13.2908 21.3225 11.7133 20.0835 10.7563 18.4063C12.0277 18.2742 13.258 17.8822 14.37 17.2548C15.4819 16.6273 16.4516 15.778 17.218 14.7602C17.9845 13.7423 18.5313 12.5778 18.8241 11.3397C19.1169 10.1017 19.1494 8.81678 18.9196 7.56563C20.0274 7.82544 21.0603 8.33502 21.9387 9.05505C22.8172 9.77509 23.5176 10.6863 23.9859 11.7184C24.4541 12.7505 24.6778 13.8758 24.6396 15.0076C24.6014 16.1393 24.3024 17.2472 23.7656 18.2457C23.65 18.4596 23.6237 18.7102 23.6924 18.9433Z" fill="#FF6969"/>
</svg>
