<svg width="33" height="33" viewBox="0 0 33 33" fill="none" xmlns="http://www.w3.org/2000/svg">
<rect width="33" height="33" rx="16.5" fill="#FF6969"/>
<path d="M25.3113 10.6282L21.1216 6.43946C20.9823 6.30014 20.8169 6.18962 20.6349 6.11421C20.4529 6.03881 20.2578 6 20.0608 6C19.8638 6 19.6687 6.03881 19.4867 6.11421C19.3047 6.18962 19.1393 6.30014 19 6.43946L7.43969 17.9998C7.2998 18.1386 7.18889 18.3038 7.11341 18.4858C7.03792 18.6678 6.99938 18.863 7.00001 19.0601V23.2498C7.00001 23.6476 7.15804 24.0291 7.43935 24.3104C7.72065 24.5917 8.10218 24.7498 8.50001 24.7498H24.25C24.4489 24.7498 24.6397 24.6708 24.7803 24.5301C24.921 24.3895 25 24.1987 25 23.9998C25 23.8009 24.921 23.6101 24.7803 23.4694C24.6397 23.3288 24.4489 23.2498 24.25 23.2498H14.8113L25.3113 12.7498C25.4506 12.6105 25.5611 12.4451 25.6365 12.2631C25.7119 12.0811 25.7507 11.886 25.7507 11.689C25.7507 11.492 25.7119 11.2969 25.6365 11.1149C25.5611 10.9329 25.4506 10.7675 25.3113 10.6282ZM12.6897 23.2498H8.50001V19.0601L16.75 10.8101L20.9397 14.9998L12.6897 23.2498ZM22 13.9395L17.8113 9.74977L20.0613 7.49977L24.25 11.6895L22 13.9395Z" fill="white"/>
</svg>
