<svg width="78" height="77" viewBox="0 0 78 77" fill="none" xmlns="http://www.w3.org/2000/svg">
<rect x="0.5" width="77" height="77" rx="10.2667" fill="white"/>
<path fill-rule="evenodd" clip-rule="evenodd" d="M36.5352 29.2653C36.6587 30.4969 36.9529 31.7072 37.4086 32.8603C35.082 37.9519 30.3055 43.5304 25.5689 45.3241C21.6654 44.1236 17.2916 45.6563 15.1127 49.2558C12.568 53.4595 13.9802 58.8899 18.2669 61.3853C22.5536 63.8806 28.0915 62.4957 30.6361 58.2922C32.0543 55.9495 32.2435 53.2258 31.3911 50.8414C33.6419 45.9656 40.4647 41.9681 46.5552 41.0136C52.4434 42.6453 58.9411 40.2794 62.2124 34.8753C66.1141 28.4299 63.9487 20.103 57.3757 16.2768C50.8029 12.4507 42.3114 14.5741 38.4096 21.0196C38.386 21.0586 38.3627 21.0977 38.3396 21.1368C34.4621 21.357 31.1947 20.5328 29.0272 19.4611C28.5012 17.8782 27.4093 16.4686 25.8348 15.5522C22.3909 13.5475 17.9418 14.66 15.8975 18.0371C13.8532 21.4142 14.9877 25.777 18.4316 27.7817C21.5051 29.5709 25.3792 28.8772 27.6302 26.3067C31.7952 26.8201 35.4626 28.2832 36.5352 29.2653Z" fill="#FF6969"/>
</svg>
